<?xml version="1.0" encoding="utf-8" standalone="yes"?>
<!DOCTYPE svg PUBLIC "-//W3C//DTD SVG 1.1//EN" "http://www.w3.org/Graphics/SVG/1.1/DTD/svg11.dtd">
<svg width="986" height="650" viewBox="0 0 986 650" style="fill:none;stroke:none;fill-rule:evenodd;clip-rule:evenodd;stroke-linecap:round;stroke-linejoin:round;stroke-miterlimit:1.5;" version="1.1" xmlns="http://www.w3.org/2000/svg" xmlns:xlink="http://www.w3.org/1999/xlink"><style class="text-font-style fontImports" data-font-family="Roboto">@import url('https://fonts.googleapis.com/css2?family=Roboto:wght@400;700&amp;display=block');</style><rect id="" x="0" y="0" width="986" height="650" style="fill: #2c2c2c;"></rect><g id="items" style="isolation: isolate"><g id="blend" style="mix-blend-mode: normal"><g id="g-root-tf_dgplub1pcsmpu-fill" data-item-order="-637632" transform="translate(-9, -9)"><g id="tf_dgplub1pcsmpu-fill" stroke="none" fill="#2c2c2c"><g><path d="M 10 10L 994 10L 994 658L 10 658Z"></path></g></g></g><g id="g-root-0.g-0_fr_v8ltxv1pdawhz-fill" data-item-order="-516623" transform="translate(63.21098327636719, 267)"></g><g id="g-root-1.g-1_1_fr_qssbtf1pdaxa9-fill" data-item-order="-516610" transform="translate(57, 210)"><g id="1.g-1_1_fr_qssbtf1pdaxa9-fill" stroke="none" fill="url(#gradient-4f83d8-135982273)"><g><path d="M 34 151C 34.000002 187.450795 63.549208 217.000002 100.000002 217.000002C 136.450795 217.000002 166.000002 187.450795 166.000002 151.000002C 166.000002 114.549208 136.450795 85.000002 100.000002 85.000002C 63.549208 85.000002 34.000002 114.549208 34.000002 151.000002M 10 151C 10 154.313709 12.686292 157 16 157C 19.313709 157 22 154.313709 22 151C 22 147.686292 19.313709 145 16 145C 12.686292 145 10 147.686292 10 151"></path></g></g><g id="1.g-1_1_fr_qssbtf1pdaxa9-fill" stroke="none" fill="url(#gradient-4f83d8-135982273)"><g><path d="M 109 19C 109 23.9706 104.9706 28 100 28C 95.0294 28 91 23.9706 91 19C 91 14.0294 95.0294 10 100 10C 104.9706 10 109 14.0294 109 19Z"></path></g></g></g><g id="g-root-2.g-2_fr_hx5bkj1pday2z-fill" data-item-order="-516598" transform="translate(225, 285)"><g id="2.g-2_fr_hx5bkj1pday2z-fill" stroke="none" fill="url(#gradient-40ae79-389135447)"><g><path d="M 34 76C 34.000002 112.450795 63.549208 142.000002 100.000002 142.000002C 136.450795 142.000002 166.000002 112.450795 166.000002 76.000002C 166.000002 39.549208 136.450795 10.000002 100.000002 10.000002C 63.549208 10.000002 34.000002 39.549208 34.000002 76.000002M 10 76C 10 79.313709 12.686292 82 16 82C 19.313709 82 22 79.313709 22 76C 22 72.686292 19.313709 70 16 70C 12.686292 70 10 72.686292 10 76"></path></g></g><g id="2.g-2_fr_hx5bkj1pday2z-fill" stroke="none" fill="url(#gradient-40ae79-389135447)"><g><path d="M 109 208C 109 212.9706 104.9706 217 100 217C 95.0294 217 91 212.9706 91 208C 91 203.0294 95.0294 199 100 199C 104.9706 199 109 203.0294 109 208Z"></path></g></g></g><g id="g-root-3.g-3_1_fr_dhyaj71pdavph-fill" data-item-order="-516586" transform="translate(393, 210)"><g id="3.g-3_1_fr_dhyaj71pdavph-fill" stroke="none" fill="url(#gradient-87aa3f-469929121)"><g><path d="M 34 151C 34.000002 187.450795 63.549208 217.000002 100.000002 217.000002C 136.450795 217.000002 166.000002 187.450795 166.000002 151.000002C 166.000002 114.549208 136.450795 85.000002 100.000002 85.000002C 63.549208 85.000002 34.000002 114.549208 34.000002 151.000002M 10 151C 10 154.313709 12.686292 157 16 157C 19.313709 157 22 154.313709 22 151C 22 147.686292 19.313709 145 16 145C 12.686292 145 10 147.686292 10 151"></path></g></g><g id="3.g-3_1_fr_dhyaj71pdavph-fill" stroke="none" fill="url(#gradient-87aa3f-469929121)"><g><path d="M 109 19C 109 23.9706 104.9706 28 100 28C 95.0294 28 91 23.9706 91 19C 91 14.0294 95.0294 10 100 10C 104.9706 10 109 14.0294 109 19Z"></path></g></g></g><g id="g-root-4.g-4_fr_4mbaab1pdawi7-fill" data-item-order="-516574" transform="translate(561, 285)"><g id="4.g-4_fr_4mbaab1pdawi7-fill" stroke="none" fill="url(#gradient-2898bd-56937253)"><g><path d="M 34 76C 34.000002 112.450795 63.549208 142.000002 100.000002 142.000002C 136.450795 142.000002 166.000002 112.450795 166.000002 76.000002C 166.000002 39.549208 136.450795 10.000002 100.000002 10.000002C 63.549208 10.000002 34.000002 39.549208 34.000002 76.000002M 10 76C 10 79.313709 12.686292 82 16 82C 19.313709 82 22 79.313709 22 76C 22 72.686292 19.313709 70 16 70C 12.686292 70 10 72.686292 10 76"></path></g></g><g id="4.g-4_fr_4mbaab1pdawi7-fill" stroke="none" fill="url(#gradient-2898bd-56937253)"><g><path d="M 109 208C 109 212.9706 104.9706 217 100 217C 95.0294 217 91 212.9706 91 208C 91 203.0294 95.0294 199 100 199C 104.9706 199 109 203.0294 109 208Z"></path></g></g></g><g id="g-root-5.g-5_1_fr_6hs5v1pdaxah-fill" data-item-order="-516562" transform="translate(729, 210)"><defs><linearGradient id="gradient-4f83d8-135982273" x2="0" y2="1"><stop offset="0" stop-color="#4e88e6"></stop><stop offset="1" stop-color="#4f7eca"></stop></linearGradient><linearGradient id="gradient-40ae79-389135447" x2="0" y2="1"><stop offset="0" stop-color="#3bc482"></stop><stop offset="1" stop-color="#449870"></stop></linearGradient><linearGradient id="gradient-87aa3f-469929121" x2="0" y2="1"><stop offset="0" stop-color="#91bb39"></stop><stop offset="1" stop-color="#7d9844"></stop></linearGradient><linearGradient id="gradient-2898bd-56937253" x2="0" y2="1"><stop offset="0" stop-color="#1fa9d7"></stop><stop offset="1" stop-color="#3187a3"></stop></linearGradient><linearGradient id="gradient-c3b321-14556876" x2="0" y2="1"><stop offset="0" stop-color="#ddc916"></stop><stop offset="1" stop-color="#a99c2c"></stop></linearGradient></defs><g id="5.g-5_1_fr_6hs5v1pdaxah-fill" stroke="none" fill="url(#gradient-c3b321-14556876)"><g><path d="M 34 151C 34.000002 187.450795 63.549208 217.000002 100.000002 217.000002C 136.450795 217.000002 166.000002 187.450795 166.000002 151.000002C 166.000002 114.549208 136.450795 85.000002 100.000002 85.000002C 63.549208 85.000002 34.000002 114.549208 34.000002 151.000002M 10 151C 10 154.313709 12.686292 157 16 157C 19.313709 157 22 154.313709 22 151C 22 147.686292 19.313709 145 16 145C 12.686292 145 10 147.686292 10 151M 178 151C 178 154.313709 180.686292 157 184 157C 187.313709 157 190 154.313709 190 151C 190 147.686292 187.313709 145 184 145C 180.686292 145 178 147.686292 178 151"></path></g></g><g id="5.g-5_1_fr_6hs5v1pdaxah-fill" stroke="none" fill="url(#gradient-c3b321-14556876)"><g><path d="M 109 19C 109 23.9706 104.9706 28 100 28C 95.0294 28 91 23.9706 91 19C 91 14.0294 95.0294 10 100 10C 104.9706 10 109 14.0294 109 19Z"></path></g></g></g><g id="g-root--1.line_fr_1ursc0j1pdaxvn-fill" data-item-order="-516549" transform="translate(147, 228)"></g><g id="g-root--1.line_1_fr_1ursc0j1pdaxvp-fill" data-item-order="-516545" transform="translate(483, 228)"></g><g id="g-root--1.line_2_fr_1lw5brn1pdayof-fill" data-item-order="-516541" transform="translate(819, 228)"></g><g id="g-root--1.line_3_fr_1qbytw31pdayo1-fill" data-item-order="-516537" transform="translate(315, 417)"></g><g id="g-root--1.line_4_fr_1hgyaqb1pdawaz-fill" data-item-order="-516533" transform="translate(651, 417)"></g><g id="g-root-tx_clientre_1qdu95f1pdaxoj-fill" data-item-order="0" transform="translate(711, 159)"><g id="tx_clientre_1qdu95f1pdaxoj-fill" stroke="none" fill="#f4f4f4"><g><text style="font: 15px Roboto, sans-serif; white-space: pre;" font-size="15px" font-family="Roboto, sans-serif"><tspan x="14.29" y="27.6" dominant-baseline="ideographic">Client renews IP address lease </tspan><tspan x="78.05" y="45.6" dominant-baseline="ideographic">periodically</tspan></text></g></g></g><g id="g-root-tx_clientre_93dqkz1pdayo9-fill" data-item-order="0" transform="translate(375, 159)"><g id="tx_clientre_93dqkz1pdayo9-fill" stroke="none" fill="#f4f4f4"><g><text style="font: 15px Roboto, sans-serif; white-space: pre;" font-size="15px" font-family="Roboto, sans-serif"><tspan x="13.51" y="27.6" dominant-baseline="ideographic">Client requests confirmation of </tspan><tspan x="71.37" y="45.6" dominant-baseline="ideographic">the offered IP</tspan></text></g></g></g><g id="g-root-tx_clientbr_zpoa8j1pdayo7-fill" data-item-order="0" transform="translate(33, 159)"><g id="tx_clientbr_zpoa8j1pdayo7-fill" stroke="none" fill="#f4f4f4"><g><text style="font: 15px Roboto, sans-serif; white-space: pre;" font-size="15px" font-family="Roboto, sans-serif"><tspan x="17.59" y="27.6" dominant-baseline="ideographic">Client broadcasts a message to </tspan><tspan x="62.33" y="45.6" dominant-baseline="ideographic">find DHCP servers</tspan></text></g></g></g><g id="g-root-tx_leaseren_1utnr9v1pdawwa-fill" data-item-order="0" transform="translate(747, 123)"><g id="tx_leaseren_1utnr9v1pdawwa-fill" stroke="none" fill="#f4f4f4"><g><text style="font: bold 20px Roboto, sans-serif; white-space: pre;" font-weight="bold" font-size="20px" font-family="Roboto, sans-serif"><tspan x="14.66" y="34" dominant-baseline="ideographic">Lease Renewal</tspan></text></g></g></g><g id="g-root-tx_request_hz0qtv1pdaxvk-fill" data-item-order="0" transform="translate(441, 123)"><g id="tx_request_hz0qtv1pdaxvk-fill" stroke="none" fill="#f4f4f4"><g><text style="font: bold 20px Roboto, sans-serif; white-space: pre;" font-weight="bold" font-size="20px" font-family="Roboto, sans-serif"><tspan x="15.03" y="34" dominant-baseline="ideographic">Request</tspan></text></g></g></g><g id="g-root-1_1hi78wj1pdayh8-fill" data-item-order="0" transform="translate(117, 321)"></g><g id="g-root-mail_18i707n1pcy96p-fill" data-item-order="0" transform="translate(285, 321)"></g><g id="g-root-ques_909gb71pdccgc-fill" data-item-order="0" transform="translate(453, 321)"></g><g id="g-root-1_18lbgsz1pcu29v-fill" data-item-order="0" transform="translate(621, 321)"></g><g id="g-root-tx_serverco_1d30hcj1pcrabv-fill" data-item-order="0" transform="translate(555, 543)"><g id="tx_serverco_1d30hcj1pcrabv-fill" stroke="none" fill="#f4f4f4"><g><text style="font: 15px Roboto, sans-serif; white-space: pre;" font-size="15px" font-family="Roboto, sans-serif"><tspan x="14.42" y="27.6" dominant-baseline="ideographic">Server confirms IP address </tspan><tspan x="36.47" y="45.6" dominant-baseline="ideographic">assignment to client</tspan></text></g></g></g><g id="g-root-tx_discover_145hscz1pdaxvy-fill" data-item-order="0" transform="translate(105, 123)"><g id="tx_discover_145hscz1pdaxvy-fill" stroke="none" fill="#f4f4f4"><g><text style="font: bold 20px Roboto, sans-serif; white-space: pre;" font-weight="bold" font-size="20px" font-family="Roboto, sans-serif"><tspan x="12.87" y="34" dominant-baseline="ideographic">Discover</tspan></text></g></g></g><g id="g-root-tx_dhcpproc_1hgyaqb1pdawb1-fill" data-item-order="0" transform="translate(369, 39)"><g id="tx_dhcpproc_1hgyaqb1pdawb1-fill" stroke="none" fill="#f4f4f4"><g><text style="font: 20px Roboto, sans-serif; white-space: pre;" font-size="20px" font-family="Roboto, sans-serif"><tspan x="12.56" y="34" dominant-baseline="ideographic">DHCP Process Sequence</tspan></text></g></g></g><g id="g-root-tx_offer_1cyn5qr1pcr7r8-fill" data-item-order="0" transform="translate(285, 507)"><g id="tx_offer_1cyn5qr1pcr7r8-fill" stroke="none" fill="#f4f4f4"><g><text style="font: bold 20px Roboto, sans-serif; white-space: pre;" font-weight="bold" font-size="20px" font-family="Roboto, sans-serif"><tspan x="17" y="34" dominant-baseline="ideographic">Offer</tspan></text></g></g></g><g id="g-root-tx_acknowle_vahioj1pcraix-fill" data-item-order="0" transform="translate(585, 507)"><g id="tx_acknowle_vahioj1pcraix-fill" stroke="none" fill="#f4f4f4"><g><text style="font: bold 20px Roboto, sans-serif; white-space: pre;" font-weight="bold" font-size="20px" font-family="Roboto, sans-serif"><tspan x="15.34" y="34" dominant-baseline="ideographic">Acknowledge</tspan></text></g></g></g><g id="g-root-tx_serverre_14305hv1pcr8jx-fill" data-item-order="0" transform="translate(219, 543)"><g id="tx_serverre_14305hv1pcr8jx-fill" stroke="none" fill="#f4f4f4"><g><text style="font: 15px Roboto, sans-serif; white-space: pre;" font-size="15px" font-family="Roboto, sans-serif"><tspan x="15.46" y="27.6" dominant-baseline="ideographic">Server responds with an IP </tspan><tspan x="38.97" y="45.6" dominant-baseline="ideographic">address and details</tspan></text></g></g></g><g id="g-root-refr_1upx32r1pd2h3e-fill" data-item-order="0" transform="translate(789, 321)"></g><g id="g-root-tf_dgplub1pcsmpu-stroke" data-item-order="-637632" transform="translate(-9, -9)"></g><g id="g-root-0.g-0_fr_v8ltxv1pdawhz-stroke" data-item-order="-516623" transform="translate(63.21098327636719, 267)"><g id="0.g-0_fr_v8ltxv1pdawhz-stroke" fill="none" stroke-linecap="round" stroke-linejoin="round" stroke-miterlimit="4" stroke="#f4f4f4" stroke-width="2" stroke-dasharray="5.0, 7.0"><g><path d="M 177.578001 100C 174.501601 143.5917 138.163501 178 93.789001 178C 49.414501 178 13.076501 143.5917 10.000001 100M 345.578 88C 342.5016 44.4083 306.1635 10 261.789 10C 217.4145 10 181.0765 44.4083 178 88M 513.578016 100C 510.501616 143.5917 474.163516 178 429.789016 178C 385.414516 178 349.076516 143.5917 346.000016 100M 681.578016 88C 678.501616 44.4083 642.163516 10 597.789016 10C 553.414516 10 517.076516 44.4083 514.000016 88M 849.577955 100C 846.501555 143.5917 810.163455 178 765.788955 178C 721.414455 178 685.076455 143.5917 681.999955 100"></path></g></g></g><g id="g-root-1.g-1_1_fr_qssbtf1pdaxa9-stroke" data-item-order="-516610" transform="translate(57, 210)"><g id="1.g-1_1_fr_qssbtf1pdaxa9-stroke" fill="none" stroke-linecap="round" stroke-linejoin="round" stroke-miterlimit="4" stroke="#f4f4f4" stroke-width="2"><g><path d="M 34 151C 34.000002 187.450795 63.549208 217.000002 100.000002 217.000002C 136.450795 217.000002 166.000002 187.450795 166.000002 151.000002C 166.000002 114.549208 136.450795 85.000002 100.000002 85.000002C 63.549208 85.000002 34.000002 114.549208 34.000002 151.000002M 10 151C 10 154.313709 12.686292 157 16 157C 19.313709 157 22 154.313709 22 151C 22 147.686292 19.313709 145 16 145C 12.686292 145 10 147.686292 10 151"></path></g></g><g id="1.g-1_1_fr_qssbtf1pdaxa9-stroke" fill="none" stroke-linecap="round" stroke-linejoin="round" stroke-miterlimit="4" stroke="#f4f4f4" stroke-width="2"><g><path d="M 109 19C 109 23.9706 104.9706 28 100 28C 95.0294 28 91 23.9706 91 19C 91 14.0294 95.0294 10 100 10C 104.9706 10 109 14.0294 109 19Z"></path></g></g></g><g id="g-root-2.g-2_fr_hx5bkj1pday2z-stroke" data-item-order="-516598" transform="translate(225, 285)"><g id="2.g-2_fr_hx5bkj1pday2z-stroke" fill="none" stroke-linecap="round" stroke-linejoin="round" stroke-miterlimit="4" stroke="#f4f4f4" stroke-width="2"><g><path d="M 34 76C 34.000002 112.450795 63.549208 142.000002 100.000002 142.000002C 136.450795 142.000002 166.000002 112.450795 166.000002 76.000002C 166.000002 39.549208 136.450795 10.000002 100.000002 10.000002C 63.549208 10.000002 34.000002 39.549208 34.000002 76.000002M 10 76C 10 79.313709 12.686292 82 16 82C 19.313709 82 22 79.313709 22 76C 22 72.686292 19.313709 70 16 70C 12.686292 70 10 72.686292 10 76"></path></g></g><g id="2.g-2_fr_hx5bkj1pday2z-stroke" fill="none" stroke-linecap="round" stroke-linejoin="round" stroke-miterlimit="4" stroke="#f4f4f4" stroke-width="2"><g><path d="M 109 208C 109 212.9706 104.9706 217 100 217C 95.0294 217 91 212.9706 91 208C 91 203.0294 95.0294 199 100 199C 104.9706 199 109 203.0294 109 208Z"></path></g></g></g><g id="g-root-3.g-3_1_fr_dhyaj71pdavph-stroke" data-item-order="-516586" transform="translate(393, 210)"><g id="3.g-3_1_fr_dhyaj71pdavph-stroke" fill="none" stroke-linecap="round" stroke-linejoin="round" stroke-miterlimit="4" stroke="#f4f4f4" stroke-width="2"><g><path d="M 34 151C 34.000002 187.450795 63.549208 217.000002 100.000002 217.000002C 136.450795 217.000002 166.000002 187.450795 166.000002 151.000002C 166.000002 114.549208 136.450795 85.000002 100.000002 85.000002C 63.549208 85.000002 34.000002 114.549208 34.000002 151.000002M 10 151C 10 154.313709 12.686292 157 16 157C 19.313709 157 22 154.313709 22 151C 22 147.686292 19.313709 145 16 145C 12.686292 145 10 147.686292 10 151"></path></g></g><g id="3.g-3_1_fr_dhyaj71pdavph-stroke" fill="none" stroke-linecap="round" stroke-linejoin="round" stroke-miterlimit="4" stroke="#f4f4f4" stroke-width="2"><g><path d="M 109 19C 109 23.9706 104.9706 28 100 28C 95.0294 28 91 23.9706 91 19C 91 14.0294 95.0294 10 100 10C 104.9706 10 109 14.0294 109 19Z"></path></g></g></g><g id="g-root-4.g-4_fr_4mbaab1pdawi7-stroke" data-item-order="-516574" transform="translate(561, 285)"><g id="4.g-4_fr_4mbaab1pdawi7-stroke" fill="none" stroke-linecap="round" stroke-linejoin="round" stroke-miterlimit="4" stroke="#f4f4f4" stroke-width="2"><g><path d="M 34 76C 34.000002 112.450795 63.549208 142.000002 100.000002 142.000002C 136.450795 142.000002 166.000002 112.450795 166.000002 76.000002C 166.000002 39.549208 136.450795 10.000002 100.000002 10.000002C 63.549208 10.000002 34.000002 39.549208 34.000002 76.000002M 10 76C 10 79.313709 12.686292 82 16 82C 19.313709 82 22 79.313709 22 76C 22 72.686292 19.313709 70 16 70C 12.686292 70 10 72.686292 10 76"></path></g></g><g id="4.g-4_fr_4mbaab1pdawi7-stroke" fill="none" stroke-linecap="round" stroke-linejoin="round" stroke-miterlimit="4" stroke="#f4f4f4" stroke-width="2"><g><path d="M 109 208C 109 212.9706 104.9706 217 100 217C 95.0294 217 91 212.9706 91 208C 91 203.0294 95.0294 199 100 199C 104.9706 199 109 203.0294 109 208Z"></path></g></g></g><g id="g-root-5.g-5_1_fr_6hs5v1pdaxah-stroke" data-item-order="-516562" transform="translate(729, 210)"><g id="5.g-5_1_fr_6hs5v1pdaxah-stroke" fill="none" stroke-linecap="round" stroke-linejoin="round" stroke-miterlimit="4" stroke="#f4f4f4" stroke-width="2"><g><path d="M 34 151C 34.000002 187.450795 63.549208 217.000002 100.000002 217.000002C 136.450795 217.000002 166.000002 187.450795 166.000002 151.000002C 166.000002 114.549208 136.450795 85.000002 100.000002 85.000002C 63.549208 85.000002 34.000002 114.549208 34.000002 151.000002M 10 151C 10 154.313709 12.686292 157 16 157C 19.313709 157 22 154.313709 22 151C 22 147.686292 19.313709 145 16 145C 12.686292 145 10 147.686292 10 151M 178 151C 178 154.313709 180.686292 157 184 157C 187.313709 157 190 154.313709 190 151C 190 147.686292 187.313709 145 184 145C 180.686292 145 178 147.686292 178 151"></path></g></g><g id="5.g-5_1_fr_6hs5v1pdaxah-stroke" fill="none" stroke-linecap="round" stroke-linejoin="round" stroke-miterlimit="4" stroke="#f4f4f4" stroke-width="2"><g><path d="M 109 19C 109 23.9706 104.9706 28 100 28C 95.0294 28 91 23.9706 91 19C 91 14.0294 95.0294 10 100 10C 104.9706 10 109 14.0294 109 19Z"></path></g></g></g><g id="g-root--1.line_fr_1ursc0j1pdaxvn-stroke" data-item-order="-516549" transform="translate(147, 228)"><g id="-1.line_fr_1ursc0j1pdaxvn-stroke" fill="none" stroke-linecap="round" stroke-linejoin="round" stroke-miterlimit="4" stroke="#f4f4f4" stroke-width="2"><g><path d="M 10 67L 10 10"></path></g></g></g><g id="g-root--1.line_1_fr_1ursc0j1pdaxvp-stroke" data-item-order="-516545" transform="translate(483, 228)"><g id="-1.line_1_fr_1ursc0j1pdaxvp-stroke" fill="none" stroke-linecap="round" stroke-linejoin="round" stroke-miterlimit="4" stroke="#f4f4f4" stroke-width="2"><g><path d="M 10 67L 10 10"></path></g></g></g><g id="g-root--1.line_2_fr_1lw5brn1pdayof-stroke" data-item-order="-516541" transform="translate(819, 228)"><g id="-1.line_2_fr_1lw5brn1pdayof-stroke" fill="none" stroke-linecap="round" stroke-linejoin="round" stroke-miterlimit="4" stroke="#f4f4f4" stroke-width="2"><g><path d="M 10 67L 10 10"></path></g></g></g><g id="g-root--1.line_3_fr_1qbytw31pdayo1-stroke" data-item-order="-516537" transform="translate(315, 417)"><g id="-1.line_3_fr_1qbytw31pdayo1-stroke" fill="none" stroke-linecap="round" stroke-linejoin="round" stroke-miterlimit="4" stroke="#f4f4f4" stroke-width="2"><g><path d="M 10 67L 10 10"></path></g></g></g><g id="g-root--1.line_4_fr_1hgyaqb1pdawaz-stroke" data-item-order="-516533" transform="translate(651, 417)"><g id="-1.line_4_fr_1hgyaqb1pdawaz-stroke" fill="none" stroke-linecap="round" stroke-linejoin="round" stroke-miterlimit="4" stroke="#f4f4f4" stroke-width="2"><g><path d="M 10 67L 10 10"></path></g></g></g><g id="g-root-tx_clientre_1qdu95f1pdaxoj-stroke" data-item-order="0" transform="translate(711, 159)"></g><g id="g-root-tx_clientre_93dqkz1pdayo9-stroke" data-item-order="0" transform="translate(375, 159)"></g><g id="g-root-tx_clientbr_zpoa8j1pdayo7-stroke" data-item-order="0" transform="translate(33, 159)"></g><g id="g-root-tx_leaseren_1utnr9v1pdawwa-stroke" data-item-order="0" transform="translate(747, 123)"></g><g id="g-root-tx_request_hz0qtv1pdaxvk-stroke" data-item-order="0" transform="translate(441, 123)"></g><g id="g-root-1_1hi78wj1pdayh8-stroke" data-item-order="0" transform="translate(117, 321)"><g id="1_1hi78wj1pdayh8-stroke" fill="none" stroke-linecap="round" stroke-linejoin="round" stroke-miterlimit="4" stroke="#f4f4f4" stroke-width="2"><g><path d="M 33.75 50L 28.75 55L 28.75 45L 27.5 45C 18.536201 44.973911 11.276088 37.713799 11.25 28.749998C 11.25 19.8125 18.5625 11.25 27.5 11.25L 47.5 11.25C 56.4375 11.25 63.75 19.8125 63.75 28.75C 63.753059 30.895725 63.328102 33.020508 62.5 35M 38.75 55.625C 38.75 58.731606 41.268398 61.25 44.375 61.25C 47.481602 61.25 50 58.731606 50 55.625C 50 52.518394 47.481602 50 44.375 50C 41.268398 50 38.75 52.518394 38.75 55.625ZM 57.5 63.125C 57.5 66.231606 60.018394 68.75 63.125 68.75C 66.231606 68.75 68.75 66.231606 68.75 63.125C 68.75 60.018394 66.231606 57.5 63.125 57.5C 60.018394 57.5 57.5 60.018394 57.5 63.125ZM 57.5 44.375C 57.5 47.481602 60.018394 50 63.125 50C 66.231606 50 68.75 47.481602 68.75 44.375C 68.75 41.268398 66.231606 38.75 63.125 38.75C 60.018394 38.75 57.5 41.268398 57.5 44.375ZM 49.1875 52.737499L 58.3125 47.262501M 49.595001 57.712498L 57.905003 61.037502"></path></g></g></g><g id="g-root-mail_18i707n1pcy96p-stroke" data-item-order="0" transform="translate(285, 321)"><g id="mail_18i707n1pcy96p-stroke" fill="none" stroke-linecap="round" stroke-linejoin="round" stroke-miterlimit="4" stroke="#f4f4f4" stroke-width="2"><g><path d="M 68.75 50L 68.75 66.25C 68.75 67.630707 67.630707 68.75 66.25 68.75L 41.25 68.75C 39.869286 68.75 38.75 67.630707 38.75 66.25L 38.75 50M 68.75 50L 68.75 48.75C 68.75 47.369286 67.630707 46.25 66.25 46.25L 41.25 46.25C 39.869286 46.25 38.75 47.369286 38.75 48.75L 38.75 50L 51.75 58.1325C 52.966019 58.892513 54.508987 58.892513 55.725002 58.1325ZM 23.75 61.25L 31.25 61.25M 31.252501 48.75L 31.252501 61.25M 18.125 60C 17.779821 60 17.5 60.279823 17.5 60.625C 17.5 60.970177 17.779821 61.25 18.125 61.25C 18.470179 61.25 18.75 60.970177 18.75 60.625C 18.75 60.279823 18.470179 60 18.125 60L 18.125 60M 11.875 60C 11.529822 60 11.25 60.279823 11.25 60.625C 11.25 60.970177 11.529822 61.25 11.875 61.25C 12.220178 61.25 12.5 60.970177 12.5 60.625C 12.5 60.279823 12.220178 60 11.875 60L 11.875 60M 20.625 16.875C 20.279823 16.875 20 17.154821 20 17.5C 20 17.845179 20.279823 18.125 20.625 18.125C 20.970177 18.125 21.25 17.845179 21.25 17.5C 21.25 17.154821 20.970177 16.875 20.625 16.875L 20.625 16.875M 26.875 16.875C 26.529823 16.875 26.25 17.154821 26.25 17.5C 26.25 17.845179 26.529823 18.125 26.875 18.125C 27.220177 18.125 27.5 17.845179 27.5 17.5C 27.5 17.154821 27.220177 16.875 26.875 16.875L 26.875 16.875M 53.75 17.5C 53.75 14.048221 50.951782 11.25 47.5 11.25L 17.5 11.25C 14.048221 11.25 11.25 14.048221 11.25 17.5C 11.25 20.95178 14.048221 23.75 17.5 23.75L 47.5 23.75C 50.951782 23.75 53.75 20.95178 53.75 17.5ZM 20.625 29.375C 20.279823 29.375 20 29.654823 20 30C 20 30.345177 20.279823 30.625 20.625 30.625C 20.970177 30.625 21.25 30.345177 21.25 30C 21.25 29.654823 20.970177 29.375 20.625 29.375L 20.625 29.375M 26.875 29.375C 26.529823 29.375 26.25 29.654823 26.25 30C 26.25 30.345177 26.529823 30.625 26.875 30.625C 27.220177 30.625 27.5 30.345177 27.5 30C 27.5 29.654823 27.220177 29.375 26.875 29.375L 26.875 29.375M 53.75 30C 53.75 26.548222 50.951782 23.75 47.5 23.75L 17.5 23.75C 14.048221 23.75 11.25 26.548222 11.25 30C 11.25 33.451778 14.048221 36.25 17.5 36.25L 47.5 36.25C 50.951782 36.25 53.75 33.451778 53.75 30ZM 20.625 41.875C 20.279823 41.875 20 42.154823 20 42.5C 20 42.845177 20.279823 43.125 20.625 43.125C 20.970177 43.125 21.25 42.845177 21.25 42.5C 21.25 42.154823 20.970177 41.875 20.625 41.875L 20.625 41.875M 26.875 41.875C 26.529823 41.875 26.25 42.154823 26.25 42.5C 26.25 42.845177 26.529823 43.125 26.875 43.125C 27.220177 43.125 27.5 42.845177 27.5 42.5C 27.5 42.154823 27.220177 41.875 26.875 41.875L 26.875 41.875M 52.5 38.75C 51.31966 37.176212 49.467236 36.25 47.5 36.25L 17.5 36.25C 14.048221 36.25 11.25 39.048222 11.25 42.5C 11.25 45.951782 14.048221 48.75 17.5 48.75L 31.25 48.75"></path></g></g></g><g id="g-root-ques_909gb71pdccgc-stroke" data-item-order="0" transform="translate(453, 321)"><g id="ques_909gb71pdccgc-stroke" fill="none" stroke-linecap="round" stroke-linejoin="round" stroke-miterlimit="4" stroke="#f4f4f4" stroke-width="2"><g><path d="M 17.58 29C 26.314775 20.261848 40.480225 20.261848 49.215 29M 55.540001 20.422501C 43.309711 8.192012 23.480286 8.192012 11.25 20.422501M 49.215 29C 40.480225 20.261848 26.314775 20.261848 17.58 29M 40.887497 35.899998C 35.560139 32.319386 28.443451 33.010834 23.904999 37.549999M 33.395 53.75C 30.965414 53.692554 29.025768 51.706512 29.025768 49.276245C 29.025768 46.845982 30.965414 44.85994 33.395 44.802498M 38.75 53.75C 38.750004 62.034271 45.465729 68.75 53.75 68.75C 62.034271 68.75 68.75 62.034271 68.75 53.75C 68.75 45.465729 62.034271 38.750004 53.75 38.750004C 45.465729 38.750004 38.750004 45.465729 38.750004 53.75ZM 49.0625 50.105C 49.062504 47.516167 51.161163 45.417503 53.75 45.417503C 56.338837 45.417503 58.4375 47.516167 58.4375 50.105003C 58.4375 52.69384 56.338837 54.792503 53.75 54.792503L 53.75 57.2925M 53.75 62.2925C 54.095177 62.2925 54.375 62.572323 54.375 62.9175C 54.375 63.262676 54.095177 63.5425 53.75 63.5425C 53.404823 63.5425 53.125 63.262676 53.125 62.9175C 53.125 62.572323 53.404823 62.2925 53.75 62.2925"></path></g></g></g><g id="g-root-1_18lbgsz1pcu29v-stroke" data-item-order="0" transform="translate(621, 321)"><g id="1_18lbgsz1pcu29v-stroke" fill="none" stroke-linecap="round" stroke-linejoin="round" stroke-miterlimit="4" stroke="#f4f4f4" stroke-width="2"><g><path d="M 53.75 61.25C 53.404823 61.25 53.125 61.529823 53.125 61.875C 53.125 62.220177 53.404823 62.5 53.75 62.5C 54.095177 62.5 54.375 62.220177 54.375 61.875C 54.375 61.529823 54.095177 61.25 53.75 61.25L 53.75 61.25M 53.75 56.25L 53.75 48.75M 55.844997 41.25C 55.432045 40.476688 54.626671 39.993752 53.75 39.993752C 52.873337 39.993752 52.067955 40.476688 51.655003 41.25L 39.014999 65.334999C 38.635159 66.056831 38.664623 66.925568 39.092499 67.619995C 39.524628 68.318947 40.288269 68.74382 41.110004 68.742508L 66.389999 68.7425C 67.211113 68.743866 67.974426 68.320122 68.407501 67.622505C 68.835373 66.928062 68.864838 66.059326 68.485001 65.337502ZM 23.75 61.25L 31.25 61.25M 31.252501 48.75L 31.252501 61.25M 18.125 60C 17.779821 60 17.5 60.279823 17.5 60.625C 17.5 60.970177 17.779821 61.25 18.125 61.25C 18.470179 61.25 18.75 60.970177 18.75 60.625C 18.75 60.279823 18.470179 60 18.125 60L 18.125 60M 11.875 60C 11.529822 60 11.25 60.279823 11.25 60.625C 11.25 60.970177 11.529822 61.25 11.875 61.25C 12.220178 61.25 12.5 60.970177 12.5 60.625C 12.5 60.279823 12.220178 60 11.875 60L 11.875 60M 20.625 41.875C 20.279823 41.875 20 42.154823 20 42.5C 20 42.845177 20.279823 43.125 20.625 43.125C 20.970177 43.125 21.25 42.845177 21.25 42.5C 21.25 42.154823 20.970177 41.875 20.625 41.875L 20.625 41.875M 26.875 41.875C 26.529823 41.875 26.25 42.154823 26.25 42.5C 26.25 42.845177 26.529823 43.125 26.875 43.125C 27.220177 43.125 27.5 42.845177 27.5 42.5C 27.5 42.154823 27.220177 41.875 26.875 41.875L 26.875 41.875M 46.25 36.25L 17.5 36.25C 14.048221 36.25 11.25 39.048222 11.25 42.5C 11.25 45.951782 14.048221 48.75 17.5 48.75L 38.75 48.75M 20.625 29.375C 20.279823 29.375 20 29.654823 20 30C 20 30.345177 20.279823 30.625 20.625 30.625C 20.970177 30.625 21.25 30.345177 21.25 30C 21.25 29.654823 20.970177 29.375 20.625 29.375L 20.625 29.375M 26.875 29.375C 26.529823 29.375 26.25 29.654823 26.25 30C 26.25 30.345177 26.529823 30.625 26.875 30.625C 27.220177 30.625 27.5 30.345177 27.5 30C 27.5 29.654823 27.220177 29.375 26.875 29.375L 26.875 29.375M 53.75 30C 53.75 26.548222 50.951782 23.75 47.5 23.75L 17.5 23.75C 14.048221 23.75 11.25 26.548222 11.25 30C 11.25 33.451778 14.048221 36.25 17.5 36.25L 46.25 36.25M 20.625 16.875C 20.279823 16.875 20 17.154821 20 17.5C 20 17.845179 20.279823 18.125 20.625 18.125C 20.970177 18.125 21.25 17.845179 21.25 17.5C 21.25 17.154821 20.970177 16.875 20.625 16.875L 20.625 16.875M 26.875 16.875C 26.529823 16.875 26.25 17.154821 26.25 17.5C 26.25 17.845179 26.529823 18.125 26.875 18.125C 27.220177 18.125 27.5 17.845179 27.5 17.5C 27.5 17.154821 27.220177 16.875 26.875 16.875L 26.875 16.875M 53.75 17.5C 53.75 14.048221 50.951782 11.25 47.5 11.25L 17.5 11.25C 14.048221 11.25 11.25 14.048221 11.25 17.5C 11.25 20.95178 14.048221 23.75 17.5 23.75L 47.5 23.75C 50.951782 23.75 53.75 20.95178 53.75 17.5Z"></path></g></g></g><g id="g-root-tx_serverco_1d30hcj1pcrabv-stroke" data-item-order="0" transform="translate(555, 543)"></g><g id="g-root-tx_discover_145hscz1pdaxvy-stroke" data-item-order="0" transform="translate(105, 123)"></g><g id="g-root-tx_dhcpproc_1hgyaqb1pdawb1-stroke" data-item-order="0" transform="translate(369, 39)"></g><g id="g-root-tx_offer_1cyn5qr1pcr7r8-stroke" data-item-order="0" transform="translate(285, 507)"></g><g id="g-root-tx_acknowle_vahioj1pcraix-stroke" data-item-order="0" transform="translate(585, 507)"></g><g id="g-root-tx_serverre_14305hv1pcr8jx-stroke" data-item-order="0" transform="translate(219, 543)"></g><g id="g-root-refr_1upx32r1pd2h3e-stroke" data-item-order="0" transform="translate(789, 321)"><g id="refr_1upx32r1pd2h3e-stroke" fill="none" stroke-linecap="round" stroke-linejoin="round" stroke-miterlimit="4" stroke="#f4f4f4" stroke-width="2"><g><path d="M 32.9375 54.182503L 16.66 54.182503C 13.786334 54.181122 11.4575 51.851166 11.4575 48.977501L 11.4575 16.455C 11.4575 13.581334 13.786334 11.25138 16.66 11.25L 55.689999 11.25C 58.56424 11.25 60.893883 13.580763 60.892502 16.455L 60.892502 34.162498M 11.4575 21.4125L 60.892502 21.4125M 11.4575 43.0075L 35.305 43.0075M 11.4575 32.227501L 60.892502 32.227501M 31.65 21.4125L 31.65 54.182503M 46.125 21.4125L 46.125 34.162498M 59.5825 50.079998L 68.542496 50.079998L 68.542496 38.880001M 68.092499 50.084999C 66.65097 43.433079 60.696541 38.736412 53.891823 38.883957C 47.087101 39.031502 41.341839 43.98185 40.189999 50.689999C 38.755745 57.375877 41.988018 64.192055 48.072498 67.3125C 54.106121 70.27301 61.392689 68.516754 65.415001 63.1325"></path></g></g></g></g></g></svg>