<?xml version="1.0" encoding="utf-8" standalone="yes"?>
<!DOCTYPE svg PUBLIC "-//W3C//DTD SVG 1.1//EN" "http://www.w3.org/Graphics/SVG/1.1/DTD/svg11.dtd">
<svg width="842" height="1010" viewBox="0 0 842 1010" style="fill:none;stroke:none;fill-rule:evenodd;clip-rule:evenodd;stroke-linecap:round;stroke-linejoin:round;stroke-miterlimit:1.5;" version="1.1" xmlns="http://www.w3.org/2000/svg" xmlns:xlink="http://www.w3.org/1999/xlink"><style class="text-font-style fontImports" data-font-family="Roboto">@import url('https://fonts.googleapis.com/css2?family=Roboto:wght@400;700&amp;display=block');</style><rect id="" x="0" y="0" width="842" height="1010" style="fill: #2c2c2c;"></rect><g id="items" style="isolation: isolate"><g id="blend" style="mix-blend-mode: normal"><g id="g-root-tf_18for831oiy48x-fill" data-item-order="-834624" transform="translate(-3, -9)"><g id="tf_18for831oiy48x-fill" stroke="none" fill="#2c2c2c"><g><path d="M 10 10L 838 10L 838 1018L 10 1018Z"></path></g></g></g><g id="g-root-2.sign-2_fr_qp11hv1oisi6n-fill" data-item-order="-569076" transform="translate(393, 231)"><g id="2.sign-2_fr_qp11hv1oisi6n-fill" stroke="none" fill="url(#gradient-2898bd-56937253)"><g><path d="M 10 10L 400 10L 400 106L 10 106L 10 10ZM 448 58C 448 31.4903 426.5097 10.000002 400.000008 10L 400 106C 426.5097 106 448 84.5097 448 58Z"></path></g></g></g><g id="g-root-4.sign-4_fr_hu0ic31oisgld-fill" data-item-order="-569048" transform="translate(393, 471)"><g id="4.sign-4_fr_hu0ic31oisgld-fill" stroke="none" fill="url(#gradient-87aa3f-469929121)"><g><path d="M 10 10L 268 10L 268 106L 10 106L 10 10ZM 316 58C 316 31.4903 294.5097 10.000002 268.000008 10L 268 106C 294.5097 106 316 84.5097 316 58Z"></path></g></g></g><g id="g-root-6.sign-6_fr_8ydi371oishe3-fill" data-item-order="-569024" transform="translate(393, 711)"><g id="6.sign-6_fr_8ydi371oishe3-fill" stroke="none" fill="url(#gradient-c67b35-424552419)"><g><path d="M 10 10L 340 10L 340 106L 10 106L 10 10ZM 388 58C 388 31.4903 366.5097 10.000002 340.000008 10L 340 106C 366.5097 106 388 84.5097 388 58Z"></path></g></g></g><g id="g-root-1.sign-1_fr_4ijzyr1oisi6d-fill" data-item-order="-569004" transform="translate(63, 111)"><g id="1.sign-1_fr_4ijzyr1oisi6d-fill" stroke="none" fill="url(#gradient-4f83d8-135982273)"><g><path d="M 58 10L 340 10L 340 106L 58 106L 58 10ZM 10 58C 10 84.5097 31.4903 106 58 106L 58 10C 31.4903 10 10 31.4903 10 58Z"></path></g></g></g><g id="g-root-3.sign-3_fr_1uonis31oisfm7-fill" data-item-order="-568980" transform="translate(63, 351)"><g id="3.sign-3_fr_1uonis31oisfm7-fill" stroke="none" fill="url(#gradient-40ae79-389135447)"><g><path d="M 58 10L 340 10L 340 106L 58 106L 58 10ZM 10 58C 10 84.5097 31.4903 106 58 106L 58 10C 31.4903 10 10 31.4903 10 58Z"></path></g></g></g><g id="g-root-7.sign-7_fr_1q8u0nn1oisgeh-fill" data-item-order="-568960" transform="translate(3, 831)"><g id="7.sign-7_fr_1q8u0nn1oisgeh-fill" stroke="none" fill="url(#gradient-d5514c-497200298)"><g><path d="M 58 10L 400 10L 400 106L 58 106L 58 10ZM 10 58C 10 84.5097 31.4903 106 58 106L 58 10C 31.4903 10 10 31.4903 10 58Z"></path></g></g></g><g id="g-root-5.sign-5_fr_1lt0ij71oish6r-fill" data-item-order="-568936" transform="translate(-9, 591)"><defs><linearGradient id="gradient-2898bd-56937253" x2="0" y2="1"><stop offset="0" stop-color="#1fa9d7"></stop><stop offset="1" stop-color="#3187a3"></stop></linearGradient><linearGradient id="gradient-87aa3f-469929121" x2="0" y2="1"><stop offset="0" stop-color="#91bb39"></stop><stop offset="1" stop-color="#7d9844"></stop></linearGradient><linearGradient id="gradient-c67b35-424552419" x2="0" y2="1"><stop offset="0" stop-color="#dc8331"></stop><stop offset="1" stop-color="#b07239"></stop></linearGradient><linearGradient id="gradient-4f83d8-135982273" x2="0" y2="1"><stop offset="0" stop-color="#4e88e6"></stop><stop offset="1" stop-color="#4f7eca"></stop></linearGradient><linearGradient id="gradient-40ae79-389135447" x2="0" y2="1"><stop offset="0" stop-color="#3bc482"></stop><stop offset="1" stop-color="#449870"></stop></linearGradient><linearGradient id="gradient-d5514c-497200298" x2="0" y2="1"><stop offset="0" stop-color="#e45752"></stop><stop offset="1" stop-color="#c54a46"></stop></linearGradient><linearGradient id="gradient-c3b321-14556876" x2="0" y2="1"><stop offset="0" stop-color="#ddc916"></stop><stop offset="1" stop-color="#a99c2c"></stop></linearGradient></defs><g id="5.sign-5_fr_1lt0ij71oish6r-fill" stroke="none" fill="url(#gradient-c3b321-14556876)"><g><path d="M 58 10L 412 10L 412 106L 58 106L 58 10ZM 10 58C 10 84.5097 31.4903 106 58 106L 58 10C 31.4903 10 10 31.4903 10 58Z"></path></g></g></g><g id="g-root-tx_querysen_1qa2ytv1oj6hvs-fill" data-item-order="0" transform="translate(405, 267)"><g id="tx_querysen_1qa2ytv1oj6hvs-fill" stroke="none" fill="#f4f4f4"><g><text style="font: 20px Roboto, sans-serif; white-space: pre;" font-size="20px" font-family="Roboto, sans-serif"><tspan x="12" y="34" dominant-baseline="ideographic">Query Sent to Recursive DNS Resolver</tspan></text></g></g></g><g id="g-root-next_v6pyvn1oish6v-fill" data-item-order="0" transform="translate(765, 261)"></g><g id="g-root-tx_thebrows_1czvhsj1oj2b64-fill" data-item-order="0" transform="translate(201, 261)"><g id="tx_thebrows_1czvhsj1oj2b64-fill" stroke="none" fill="#f4f4f4"><g><text style="font: 15px Roboto, sans-serif; white-space: pre;" font-size="15px" font-family="Roboto, sans-serif"><tspan x="16.19" y="27.6" dominant-baseline="ideographic">The browser sends a DNS </tspan><tspan x="49.23" y="45.6" dominant-baseline="ideographic">query to the resolver.</tspan></text></g></g></g><g id="g-root-tx_thebrows_91hvir1oj6hvy-fill" data-item-order="0" transform="translate(405, 861)"><g id="tx_thebrows_91hvir1oj6hvy-fill" stroke="none" fill="#f4f4f4"><g><text style="font: 15px Roboto, sans-serif; white-space: pre;" font-size="15px" font-family="Roboto, sans-serif"><tspan x="12" y="27.6" dominant-baseline="ideographic">The browser connects to the </tspan><tspan x="12" y="45.6" dominant-baseline="ideographic">web server.</tspan></text></g></g></g><g id="g-root-tx_rootname_958t771oj7ymd-fill" data-item-order="0" transform="translate(141, 387)"><g id="tx_rootname_958t771oj7ymd-fill" stroke="none" fill="#f4f4f4"><g><text style="font: 20px Roboto, sans-serif; white-space: pre;" font-size="20px" font-family="Roboto, sans-serif"><tspan x="15.79" y="34" dominant-baseline="ideographic">Root Name Server Lookup</tspan></text></g></g></g><g id="g-root-tx_theresol_v7yx1v1oj6io3-fill" data-item-order="0" transform="translate(405, 381)"><g id="tx_theresol_v7yx1v1oj6io3-fill" stroke="none" fill="#f4f4f4"><g><text style="font: 15px Roboto, sans-serif; white-space: pre;" font-size="15px" font-family="Roboto, sans-serif"><tspan x="12" y="27.6" dominant-baseline="ideographic">The resolver queries a root </tspan><tspan x="12" y="45.6" dominant-baseline="ideographic">name server.</tspan></text></g></g></g><g id="g-root-tx_theusert_18i6h8z1oisfly-fill" data-item-order="0" transform="translate(405, 141)"><g id="tx_theusert_18i6h8z1oisfly-fill" stroke="none" fill="#f4f4f4"><g><text style="font: 15px Roboto, sans-serif; white-space: pre;" font-size="15px" font-family="Roboto, sans-serif"><tspan x="12" y="27.6" dominant-baseline="ideographic">The user types a URL into the </tspan><tspan x="12" y="45.6" dominant-baseline="ideographic">browser.</tspan></text></g></g></g><g id="g-root-tx_theresol_mg2uhf1ojdk3o-fill" data-item-order="0" transform="translate(177, 501)"><g id="tx_theresol_mg2uhf1ojdk3o-fill" stroke="none" fill="#f4f4f4"><g><text style="font: 15px Roboto, sans-serif; white-space: pre;" font-size="15px" font-family="Roboto, sans-serif"><tspan x="22.01" y="27.6" dominant-baseline="ideographic">The resolver queries the TLD </tspan><tspan x="126.55" y="45.6" dominant-baseline="ideographic">name server.</tspan></text></g></g></g><g id="g-root-tx_tldnames_1q9ghqr1oj9de4-fill" data-item-order="0" transform="translate(405, 507)"><g id="tx_tldnames_1q9ghqr1oj9de4-fill" stroke="none" fill="#f4f4f4"><g><text style="font: 20px Roboto, sans-serif; white-space: pre;" font-size="20px" font-family="Roboto, sans-serif"><tspan x="12" y="34" dominant-baseline="ideographic">TLD Name Server Query</tspan></text></g></g></g><g id="g-root-lamb_1ur5f4j1oj6j9r-fill" data-item-order="0" transform="translate(633, 501)"></g><g id="g-root-tx_userente_detkgj1oj2bk5-fill" data-item-order="0" transform="translate(141, 147)"><g id="tx_userente_detkgj1oj2bk5-fill" stroke="none" fill="#f4f4f4"><g><text style="font: 20px Roboto, sans-serif; white-space: pre;" font-size="20px" font-family="Roboto, sans-serif"><tspan x="13.63" y="34" dominant-baseline="ideographic">User Enters Domain Name</tspan></text></g></g></g><g id="g-root-2_958t771ojdiit-fill" data-item-order="0" transform="translate(21, 621)"></g><g id="g-root-tx_authorit_146qh1v1oiwpa8-fill" data-item-order="0" transform="translate(69, 627)"><g id="tx_authorit_146qh1v1oiwpa8-fill" stroke="none" fill="#f4f4f4"><g><text style="font: 20px Roboto, sans-serif; white-space: pre;" font-size="20px" font-family="Roboto, sans-serif"><tspan x="15.9" y="34" dominant-baseline="ideographic">Authoritative Name Server Lookup</tspan></text></g></g></g><g id="g-root-tx_theresol_18isyc31oj9clj-fill" data-item-order="0" transform="translate(405, 621)"><g id="tx_theresol_18isyc31oj9clj-fill" stroke="none" fill="#f4f4f4"><g><text style="font: 15px Roboto, sans-serif; white-space: pre;" font-size="15px" font-family="Roboto, sans-serif"><tspan x="12" y="27.6" dominant-baseline="ideographic">The resolver contacts the </tspan><tspan x="12" y="45.6" dominant-baseline="ideographic">authoritative server.</tspan></text></g></g></g><g id="g-root-www_1d0hvpv1ojdi4l-fill" data-item-order="0" transform="translate(93, 141)"></g><g id="g-root-tx_theresol_vb3gsz1oiwq2x-fill" data-item-order="0" transform="translate(201, 741)"><g id="tx_theresol_vb3gsz1oiwq2x-fill" stroke="none" fill="#f4f4f4"><g><text style="font: 15px Roboto, sans-serif; white-space: pre;" font-size="15px" font-family="Roboto, sans-serif"><tspan x="12.41" y="27.6" dominant-baseline="ideographic">The resolver caches the IP </tspan><tspan x="130.57" y="45.6" dominant-baseline="ideographic">address.</tspan></text></g></g></g><g id="g-root-tx_retrieve_1hfowr71ojdki4-fill" data-item-order="0" transform="translate(405, 747)"><g id="tx_retrieve_1hfowr71ojdki4-fill" stroke="none" fill="#f4f4f4"><g><text style="font: 20px Roboto, sans-serif; white-space: pre;" font-size="20px" font-family="Roboto, sans-serif"><tspan x="12" y="34" dominant-baseline="ideographic">Retrieve and Cache DNS Record</tspan></text></g></g></g><g id="g-root-chip_qs5exf1oj9bsx-fill" data-item-order="0" transform="translate(705, 741)"></g><g id="g-root-tx_dnsresol_1cxdiab1oishzh-fill" data-item-order="0" transform="translate(279, 39)"><g id="tx_dnsresol_1cxdiab1oishzh-fill" stroke="none" fill="#f4f4f4"><g><text style="font: 20px Roboto, sans-serif; white-space: pre;" font-size="20px" font-family="Roboto, sans-serif"><tspan x="16.04" y="34" dominant-baseline="ideographic">DNS Resolution Process</tspan></text></g></g></g><g id="g-root-lost_8onn1oj9atq-fill" data-item-order="0" transform="translate(33, 861)"></g><g id="g-root-tx_browserc_zrjcur1ojdiir-fill" data-item-order="0" transform="translate(81, 867)"><g id="tx_browserc_zrjcur1ojdiir-fill" stroke="none" fill="#f4f4f4"><g><text style="font: 20px Roboto, sans-serif; white-space: pre;" font-size="20px" font-family="Roboto, sans-serif"><tspan x="17.1" y="34" dominant-baseline="ideographic">Browser Connects to Web Server</tspan></text></g></g></g><g id="g-root-batc_zk1ntf1oj3ocm-fill" data-item-order="0" transform="translate(93, 381)"></g><g id="g-root-tf_18for831oiy48x-stroke" data-item-order="-834624" transform="translate(-3, -9)"></g><g id="g-root-2.sign-2_fr_qp11hv1oisi6n-stroke" data-item-order="-569076" transform="translate(393, 231)"><g id="2.sign-2_fr_qp11hv1oisi6n-stroke" fill="none" stroke-linecap="round" stroke-linejoin="round" stroke-miterlimit="4" stroke="#f4f4f4" stroke-width="2"><g><path d="M 400 106L 10 106M 10 10L 400 10M 400 10C 426.5097 10 448 31.4903 448 58C 448 84.5097 426.5097 106 400 106M 10 106L 10 10"></path></g></g></g><g id="g-root-4.sign-4_fr_hu0ic31oisgld-stroke" data-item-order="-569048" transform="translate(393, 471)"><g id="4.sign-4_fr_hu0ic31oisgld-stroke" fill="none" stroke-linecap="round" stroke-linejoin="round" stroke-miterlimit="4" stroke="#f4f4f4" stroke-width="2"><g><path d="M 268 106L 10 106M 10 10L 268 10M 268 10C 294.5097 10 316 31.4903 316 58C 316 84.5097 294.5097 106 268 106M 10 106L 10 10"></path></g></g></g><g id="g-root-6.sign-6_fr_8ydi371oishe3-stroke" data-item-order="-569024" transform="translate(393, 711)"><g id="6.sign-6_fr_8ydi371oishe3-stroke" fill="none" stroke-linecap="round" stroke-linejoin="round" stroke-miterlimit="4" stroke="#f4f4f4" stroke-width="2"><g><path d="M 340 106L 10 106M 10 10L 340 10M 340 10C 366.5097 10 388 31.4903 388 58C 388 84.5097 366.5097 106 340 106M 10 106L 10 10"></path></g></g></g><g id="g-root-1.sign-1_fr_4ijzyr1oisi6d-stroke" data-item-order="-569004" transform="translate(63, 111)"><g id="1.sign-1_fr_4ijzyr1oisi6d-stroke" fill="none" stroke-linecap="round" stroke-linejoin="round" stroke-miterlimit="4" stroke="#f4f4f4" stroke-width="2"><g><path d="M 58 10L 340 10M 340 106L 58 106M 58 106C 31.4903 106 10 84.5097 10 58C 10 31.4903 31.4903 10 58 10M 340 10L 340 106"></path></g></g></g><g id="g-root-3.sign-3_fr_1uonis31oisfm7-stroke" data-item-order="-568980" transform="translate(63, 351)"><g id="3.sign-3_fr_1uonis31oisfm7-stroke" fill="none" stroke-linecap="round" stroke-linejoin="round" stroke-miterlimit="4" stroke="#f4f4f4" stroke-width="2"><g><path d="M 58 10L 340 10M 340 106L 58 106M 58 106C 31.4903 106 10 84.5097 10 58C 10 31.4903 31.4903 10 58 10M 340 10L 340 106"></path></g></g></g><g id="g-root-7.sign-7_fr_1q8u0nn1oisgeh-stroke" data-item-order="-568960" transform="translate(3, 831)"><g id="7.sign-7_fr_1q8u0nn1oisgeh-stroke" fill="none" stroke-linecap="round" stroke-linejoin="round" stroke-miterlimit="4" stroke="#f4f4f4" stroke-width="2"><g><path d="M 58 10L 400 10M 400 106L 58 106M 58 106C 31.4903 106 10 84.5097 10 58C 10 31.4903 31.4903 10 58 10M 400 10L 400 106"></path></g></g></g><g id="g-root-5.sign-5_fr_1lt0ij71oish6r-stroke" data-item-order="-568936" transform="translate(-9, 591)"><g id="5.sign-5_fr_1lt0ij71oish6r-stroke" fill="none" stroke-linecap="round" stroke-linejoin="round" stroke-miterlimit="4" stroke="#f4f4f4" stroke-width="2"><g><path d="M 58 10L 412 10M 412 106L 58 106M 58 106C 31.4903 106 10 84.5097 10 58C 10 31.4903 31.4903 10 58 10M 412 10L 412 106"></path></g></g></g><g id="g-root-tx_querysen_1qa2ytv1oj6hvs-stroke" data-item-order="0" transform="translate(405, 267)"></g><g id="g-root-next_v6pyvn1oish6v-stroke" data-item-order="0" transform="translate(765, 261)"><g id="next_v6pyvn1oish6v-stroke" fill="none" stroke-linecap="round" stroke-linejoin="round" stroke-miterlimit="4" stroke="#f4f4f4" stroke-width="2"><g><path d="M 38.545002 28.006001L 45.295002 33.256001L 38.545002 38.506001M 45.295002 33.25L 40.045002 33.25C 35.074436 33.25 31.045002 37.279438 31.045002 42.25L 31.045 45.25M 11.545 16.756001L 41.545002 16.756001M 16.045 13.381L 16.045 13.381M 16.045 13.381C 15.837893 13.381 15.67 13.548893 15.67 13.756C 15.67 13.963107 15.837893 14.131 16.045 14.131C 16.252108 14.131 16.42 13.963107 16.42 13.756C 16.42 13.548893 16.252108 13.381 16.045 13.381M 19.045 13.381L 19.045 13.381M 19.045 13.381C 18.837893 13.381 18.67 13.548893 18.67 13.756C 18.67 13.963107 18.837893 14.131 19.045 14.131C 19.252108 14.131 19.42 13.963107 19.42 13.756C 19.42 13.548893 19.252108 13.381 19.045 13.381M 22.045 13.381L 22.045 13.381M 22.045 13.381C 21.837893 13.381 21.67 13.548893 21.67 13.756C 21.67 13.963107 21.837893 14.131 22.045 14.131C 22.252106 14.131 22.42 13.963107 22.42 13.756C 22.42 13.548893 22.252106 13.381 22.045 13.381M 28.045 34.75L 14.545 34.75C 12.888145 34.75 11.545 33.406853 11.545 31.75L 11.545 13.75C 11.545 12.093145 12.888145 10.75 14.545 10.75L 38.545002 10.75C 40.201855 10.75 41.545002 12.093145 41.545002 13.75L 41.545002 25.75"></path></g></g></g><g id="g-root-tx_thebrows_1czvhsj1oj2b64-stroke" data-item-order="0" transform="translate(201, 261)"></g><g id="g-root-tx_thebrows_91hvir1oj6hvy-stroke" data-item-order="0" transform="translate(405, 861)"></g><g id="g-root-tx_rootname_958t771oj7ymd-stroke" data-item-order="0" transform="translate(141, 387)"></g><g id="g-root-tx_theresol_v7yx1v1oj6io3-stroke" data-item-order="0" transform="translate(405, 381)"></g><g id="g-root-tx_theusert_18i6h8z1oisfly-stroke" data-item-order="0" transform="translate(405, 141)"></g><g id="g-root-tx_theresol_mg2uhf1ojdk3o-stroke" data-item-order="0" transform="translate(177, 501)"></g><g id="g-root-tx_tldnames_1q9ghqr1oj9de4-stroke" data-item-order="0" transform="translate(405, 507)"></g><g id="g-root-lamb_1ur5f4j1oj6j9r-stroke" data-item-order="0" transform="translate(633, 501)"><g id="lamb_1ur5f4j1oj6j9r-stroke" fill="none" stroke-linecap="round" stroke-linejoin="round" stroke-miterlimit="4" stroke="#f4f4f4" stroke-width="2"><g><path d="M 24.325031 37L 20.125 44.5L 11.125 44.5L 19.675014 29.049999L 24.325031 37ZM 25.375 11.499908L 14.875 11.499908L 14.875 18.99991L 20.575031 18.99991L 34.375 44.499851L 44.875 44.499851L 44.875 36.999851L 39.324997 36.999851L 25.375 11.499908Z"></path></g></g></g><g id="g-root-tx_userente_detkgj1oj2bk5-stroke" data-item-order="0" transform="translate(141, 147)"></g><g id="g-root-2_958t771ojdiit-stroke" data-item-order="0" transform="translate(21, 621)"><g id="2_958t771ojdiit-stroke" fill="none" stroke-linecap="round" stroke-linejoin="round" stroke-miterlimit="4" stroke="#f4f4f4" stroke-width="2"><g><path d="M 16.035894 44.875C 18.52117 44.875 20.535894 42.860352 20.535894 40.375C 20.535894 37.889648 18.52117 35.875 16.035894 35.875C 13.550605 35.875 11.535895 37.889648 11.535895 40.375C 11.535895 42.860352 13.550605 44.875 16.035894 44.875ZM 20.535894 40.375L 30.285851 40.375C 31.18585 40.375 31.785851 39.775002 31.785851 38.875L 31.785851 35.875M 26.535851 36.625L 26.535851 40.375M 43.6819 31.157949L 43.6819 24.841795L 37.224998 24.841795L 37.224998 31.157949L 43.6819 31.157949ZM 10 10M 28.195749 20.03392L 32.65015 15.579595L 28.195749 11.125264L 23.741501 15.579595L 28.195749 20.03392ZM 10 10M 36.589901 18.966206L 40.36945 12.194335L 44.464149 18.966206L 36.589901 18.966206ZM 28.196051 31.732C 30.277149 31.732 31.964201 30.04495 31.964201 27.96385C 31.964201 25.8829 30.277149 24.195805 28.196051 24.195805C 26.11495 24.195805 24.427975 25.8829 24.427975 27.96385C 24.427975 30.04495 26.11495 31.732 28.196051 31.732Z"></path></g></g></g><g id="g-root-tx_authorit_146qh1v1oiwpa8-stroke" data-item-order="0" transform="translate(69, 627)"></g><g id="g-root-tx_theresol_18isyc31oj9clj-stroke" data-item-order="0" transform="translate(405, 621)"></g><g id="g-root-www_1d0hvpv1ojdi4l-stroke" data-item-order="0" transform="translate(93, 141)"><g id="www_1d0hvpv1ojdi4l-stroke" fill="none" stroke-linecap="round" stroke-linejoin="round" stroke-miterlimit="4" stroke="#f4f4f4" stroke-width="2"><g><path d="M 45.25 28C 45.247963 36.69173 38.775879 44.022606 30.15143 45.102009C 21.526985 46.181412 13.447819 40.671722 11.303749 32.248589C 9.159678 23.825459 13.621348 15.123556 21.712265 11.948141C 29.803181 8.772726 38.992588 12.117037 43.150002 19.75C 44.530949 22.28031 45.253113 25.117384 45.25 28ZM 35.525501 19.75C 34.124416 15.975128 31.46719 12.797261 28 10.75C 24.53281 12.797261 21.875584 15.975128 20.474499 19.75M 20.473 36.25C 21.875216 40.024666 24.53281 43.202339 28 45.25C 31.631096 43.36869 34.378242 40.136749 35.650002 36.25M 14.923 16.75L 41.077 16.75M 14.923 39.25L 41.077 39.25M 24.25 25L 24.25 27.0175C 24.250366 28.162252 24.468758 29.296461 24.893499 30.359501L 25.75 32.5L 27.25 27.25L 28.75 32.5L 29.606501 30.359501C 30.031242 29.296461 30.249634 28.162252 30.25 27.0175L 30.25 25M 33.25 25L 33.25 27.0175C 33.250366 28.162252 33.468758 29.296461 33.893501 30.359501L 34.75 32.5L 36.25 27.25L 37.75 32.5L 38.606499 30.359501C 39.031242 29.296461 39.249634 28.162252 39.25 27.0175L 39.25 25M 15.25 25L 15.25 27.0175C 15.250366 28.162252 15.468757 29.296461 15.8935 30.359501L 16.75 32.5L 18.25 27.25L 19.75 32.5L 20.606501 30.359501C 21.031242 29.296461 21.249634 28.162252 21.25 27.0175L 21.25 25"></path></g></g></g><g id="g-root-tx_theresol_vb3gsz1oiwq2x-stroke" data-item-order="0" transform="translate(201, 741)"></g><g id="g-root-tx_retrieve_1hfowr71ojdki4-stroke" data-item-order="0" transform="translate(405, 747)"></g><g id="g-root-chip_qs5exf1oj9bsx-stroke" data-item-order="0" transform="translate(705, 741)"><g id="chip_qs5exf1oj9bsx-stroke" fill="none" stroke-linecap="round" stroke-linejoin="round" stroke-miterlimit="4" stroke="#f4f4f4" stroke-width="2"><g><path d="M 22.824986 29.125C 29.286699 29.125 34.525002 26.841551 34.525002 24.024925C 34.525002 21.208269 29.286699 18.924925 22.824986 18.924925C 16.363255 18.924925 11.125 21.208269 11.125 24.024925C 11.125 26.841551 16.363255 29.125 22.824986 29.125ZM 11.125 24.47485L 11.125 39.774849C 11.125 42.624851 16.374985 44.874851 22.824986 44.874851C 29.275002 44.874851 34.525002 42.624851 34.525002 39.774849L 34.525002 24.47485M 32.125 16.375L 32.125 14.875C 32.125 13.975 32.724998 13.375 33.625 13.375L 41.125 13.375C 42.025002 13.375 42.625 13.975 42.625 14.875L 42.625 19.375C 42.625 20.275 42.025002 20.875 41.125 20.875L 37.375 20.875M 32.875 11.125L 32.875 13.53742M 37.375 11.125L 37.375 13.375M 41.875 11.125L 41.875 13.53742M 37.375 20.875L 37.375 23.125M 10 10M 41.875 20.70727L 41.875 23.125M 44.875 19.375L 42.625 19.375M 44.875 14.875L 42.625 14.875M 32.125 14.875L 29.875 14.875M 10 10M 20.130039 40.664349L 20.130039 37.49395M 20.130039 37.49395L 20.130039 33.055149L 22.98349 33.055149C 24.209215 33.055149 25.202799 34.048748 25.202799 35.274551L 25.202799 35.274551C 25.202799 36.500198 24.209215 37.49395 22.98349 37.49395L 20.130039 37.49395ZM 10 10M 23.300606 37.493801L 25.519899 40.664349"></path></g></g></g><g id="g-root-tx_dnsresol_1cxdiab1oishzh-stroke" data-item-order="0" transform="translate(279, 39)"></g><g id="g-root-lost_8onn1oj9atq-stroke" data-item-order="0" transform="translate(33, 861)"><g id="lost_8onn1oj9atq-stroke" fill="none" stroke-linecap="round" stroke-linejoin="round" stroke-miterlimit="4" stroke="#f4f4f4" stroke-width="2"><g><path d="M 22.6945 41.969498L 13.75 41.969498C 12.093145 41.969498 10.75 40.626354 10.75 38.969498L 10.75 14.2195C 10.75 12.562646 12.093145 11.2195 13.75 11.2195L 42.25 11.2195C 43.906857 11.2195 45.25 12.562646 45.25 14.2195L 45.25 25.0945M 10.75 18.7195L 45.25 18.7195M 16 14.5945C 16.207108 14.5945 16.375 14.762393 16.375 14.9695C 16.375 15.176607 16.207108 15.3445 16 15.3445C 15.792893 15.3445 15.625 15.176607 15.625 14.9695C 15.625 14.762393 15.792893 14.5945 16 14.5945M 20.5 14.5945C 20.707108 14.5945 20.875 14.762393 20.875 14.9695C 20.875 15.176607 20.707108 15.3445 20.5 15.3445C 20.292892 15.3445 20.125 15.176607 20.125 14.9695C 20.125 14.762393 20.292892 14.5945 20.5 14.5945M 25 14.5945C 25.207108 14.5945 25.375 14.762393 25.375 14.9695C 25.375 15.176607 25.207108 15.3445 25 15.3445C 24.792892 15.3445 24.625 15.176607 24.625 14.9695C 24.625 14.762393 24.792892 14.5945 25 14.5945M 32.125 42.905502C 32.125 43.941032 32.964466 44.780502 34 44.780502C 35.035534 44.780502 35.875 43.941032 35.875 42.905502C 35.875 41.869968 35.035534 41.030502 34 41.030502C 32.964466 41.030502 32.125 41.869968 32.125 42.905502M 34 28.4935L 34 37.379501M 29.548 39.032501C 29.246933 39.255859 28.962671 39.501022 28.6975 39.765999M 39.302498 39.765999C 39.027077 39.490452 38.730682 39.236691 38.416 39.007M 29.551001 33.922001C 28.038364 34.52562 26.664835 35.431606 25.5145 36.584499M 42.4855 36.584499C 41.327023 35.422668 39.941772 34.511765 38.415997 33.908501M 29.414499 29.218C 26.92577 29.935822 24.642105 31.232107 22.75 33.000999M 45.25 33.000999C 43.313622 31.191675 40.968498 29.877338 38.414501 29.17"></path></g></g></g><g id="g-root-tx_browserc_zrjcur1ojdiir-stroke" data-item-order="0" transform="translate(81, 867)"></g><g id="g-root-batc_zk1ntf1oj3ocm-stroke" data-item-order="0" transform="translate(93, 381)"><g id="batc_zk1ntf1oj3ocm-stroke" fill="none" stroke-linecap="round" stroke-linejoin="round" stroke-miterlimit="4" stroke="#f4f4f4" stroke-width="2"><g><path d="M 15.77506 31.67515C 18.260334 31.67515 20.275061 29.660351 20.275061 27.17515C 20.275061 24.689829 18.260334 22.675106 15.77506 22.675106C 13.28977 22.675106 11.275056 24.689829 11.275056 27.17515C 11.275056 29.660351 13.28977 31.67515 15.77506 31.67515ZM 28.525002 44.875C 31.010349 44.875 33.025002 42.860352 33.025002 40.375C 33.025002 37.889648 31.010349 35.875 28.525002 35.875C 26.039801 35.875 24.025061 37.889648 24.025061 40.375C 24.025061 42.860352 26.039801 44.875 28.525002 44.875ZM 28.525002 30.92515C 30.59605 30.92515 32.275002 29.246201 32.275002 27.17515C 32.275002 25.104099 30.59605 23.425106 28.525002 23.425106C 26.453951 23.425106 24.775061 25.104099 24.775061 27.17515C 24.775061 29.246201 26.453951 30.92515 28.525002 30.92515ZM 28.525002 18.625C 30.59605 18.625 32.275002 16.946066 32.275002 14.875C 32.275002 12.803935 30.59605 11.125 28.525002 11.125C 26.453951 11.125 24.775061 12.803935 24.775061 14.875C 24.775061 16.946066 26.453951 18.625 28.525002 18.625ZM 15.77506 44.125C 17.846125 44.125 19.525061 42.446049 19.525061 40.375C 19.525061 38.303951 17.846125 36.625 15.77506 36.625C 13.70398 36.625 12.02506 38.303951 12.02506 40.375C 12.02506 42.446049 13.70398 44.125 15.77506 44.125ZM 40.974998 44.125C 43.046051 44.125 44.724998 42.446049 44.724998 40.375C 44.724998 38.303951 43.046051 36.625 40.974998 36.625C 38.90395 36.625 37.224998 38.303951 37.224998 40.375C 37.224998 42.446049 38.90395 44.125 40.974998 44.125ZM 40.974998 30.92515C 43.046051 30.92515 44.724998 29.246201 44.724998 27.17515C 44.724998 25.104099 43.046051 23.425106 40.974998 23.425106C 38.90395 23.425106 37.224998 25.104099 37.224998 27.17515C 37.224998 29.246201 38.90395 30.92515 40.974998 30.92515ZM 15.77506 31.67515L 15.77506 36.625M 10 10M 28.525002 30.92515L 28.525002 35.875M 40.974998 30.92515L 40.974998 36.625M 20.275061 27.17515L 24.77503 27.17515M 32.275002 27.17515L 37.225151 27.17515M 28.525002 18.625L 28.525002 23.425106M 28.525002 41.786949C 29.30485 41.786949 29.936951 41.15485 29.936951 40.375C 29.936951 39.595299 29.30485 38.963051 28.525002 38.963051C 27.74515 38.963051 27.11305 39.595299 27.11305 40.375C 27.11305 41.15485 27.74515 41.786949 28.525002 41.786949ZM 15.775015 28.587101C 16.554821 28.587101 17.186979 27.955 17.186979 27.17515C 17.186979 26.3953 16.554821 25.763199 15.775015 25.763199C 14.995195 25.763199 14.363035 26.3953 14.363035 27.17515C 14.363035 27.955 14.995195 28.587101 15.775015 28.587101Z"></path></g></g></g></g></g></svg>