<?xml version="1.0" encoding="utf-8" standalone="yes"?>
<!DOCTYPE svg PUBLIC "-//W3C//DTD SVG 1.1//EN" "http://www.w3.org/Graphics/SVG/1.1/DTD/svg11.dtd">
<svg width="1322" height="746" viewBox="0 0 1322 746" style="fill:none;stroke:none;fill-rule:evenodd;clip-rule:evenodd;stroke-linecap:round;stroke-linejoin:round;stroke-miterlimit:1.5;" version="1.1" xmlns="http://www.w3.org/2000/svg" xmlns:xlink="http://www.w3.org/1999/xlink"><style class="text-font-style fontImports" data-font-family="Roboto">@import url('https://fonts.googleapis.com/css2?family=Roboto:wght@400;700&amp;display=block');</style><rect id="" x="0" y="0" width="1322" height="746" style="fill: #2c2c2c;"></rect><g id="items" style="isolation: isolate"><g id="blend" style="mix-blend-mode: normal"><g id="g-root-tf_4jttpf1n4vvv0-fill" data-item-order="-982080" transform="translate(-9, -9)"><g id="tf_4jttpf1n4vvv0-fill" stroke="none" fill="#2c2c2c"><g><path d="M 10 10L 1330 10L 1330 754L 10 754Z"></path></g></g></g><g id="g-root-0.g-0_fr_8x595v1n52ygw-fill" data-item-order="-824195" transform="translate(63.21098327636719, 291)"></g><g id="g-root-1.g-1_1_fr_24q031n52w3u-fill" data-item-order="-824178" transform="translate(57, 234)"><g id="1.g-1_1_fr_24q031n52w3u-fill" stroke="none" fill="#4f91fc"><g><path d="M 34 151C 34.000002 187.450795 63.549208 217.000002 100.000002 217.000002C 136.450795 217.000002 166.000002 187.450795 166.000002 151.000002C 166.000002 114.549208 136.450795 85.000002 100.000002 85.000002C 63.549208 85.000002 34.000002 114.549208 34.000002 151.000002M 10 151C 10 154.313709 12.686292 157 16 157C 19.313709 157 22 154.313709 22 151C 22 147.686292 19.313709 145 16 145C 12.686292 145 10 147.686292 10 151"></path></g></g><g id="1.g-1_1_fr_24q031n52w3u-fill" stroke="none" fill="#4f91fc"><g><path d="M 109 19C 109 23.9706 104.9706 28 100 28C 95.0294 28 91 23.9706 91 19C 91 14.0294 95.0294 10 100 10C 104.9706 10 109 14.0294 109 19Z"></path></g></g></g><g id="g-root-2.g-2_fr_1unf9ur1n52wp0-fill" data-item-order="-824166" transform="translate(225, 309)"><g id="2.g-2_fr_1unf9ur1n52wp0-fill" stroke="none" fill="#1ac3fb"><g><path d="M 34 76C 34.000002 112.450795 63.549208 142.000002 100.000002 142.000002C 136.450795 142.000002 166.000002 112.450795 166.000002 76.000002C 166.000002 39.549208 136.450795 10.000002 100.000002 10.000002C 63.549208 10.000002 34.000002 39.549208 34.000002 76.000002M 10 76C 10 79.313709 12.686292 82 16 82C 19.313709 82 22 79.313709 22 76C 22 72.686292 19.313709 70 16 70C 12.686292 70 10 72.686292 10 76"></path></g></g><g id="2.g-2_fr_1unf9ur1n52wp0-fill" stroke="none" fill="#1ac3fb"><g><path d="M 109 208C 109 212.9706 104.9706 217 100 217C 95.0294 217 91 212.9706 91 208C 91 203.0294 95.0294 199 100 199C 104.9706 199 109 203.0294 109 208Z"></path></g></g></g><g id="g-root-3.g-3_1_fr_1lrs9lv1n52xhq-fill" data-item-order="-824154" transform="translate(393, 234)"><g id="3.g-3_1_fr_1lrs9lv1n52xhq-fill" stroke="none" fill="#43dd93"><g><path d="M 34 151C 34.000002 187.450795 63.549208 217.000002 100.000002 217.000002C 136.450795 217.000002 166.000002 187.450795 166.000002 151.000002C 166.000002 114.549208 136.450795 85.000002 100.000002 85.000002C 63.549208 85.000002 34.000002 114.549208 34.000002 151.000002M 10 151C 10 154.313709 12.686292 157 16 157C 19.313709 157 22 154.313709 22 151C 22 147.686292 19.313709 145 16 145C 12.686292 145 10 147.686292 10 151"></path></g></g><g id="3.g-3_1_fr_1lrs9lv1n52xhq-fill" stroke="none" fill="#43dd93"><g><path d="M 109 19C 109 23.9706 104.9706 28 100 28C 95.0294 28 91 23.9706 91 19C 91 14.0294 95.0294 10 100 10C 104.9706 10 109 14.0294 109 19Z"></path></g></g></g><g id="g-root-4.g-4_fr_1hbyrhf1n52ya0-fill" data-item-order="-824142" transform="translate(561, 309)"><g id="4.g-4_fr_1hbyrhf1n52ya0-fill" stroke="none" fill="#a6da37"><g><path d="M 34 76C 34.000002 112.450795 63.549208 142.000002 100.000002 142.000002C 136.450795 142.000002 166.000002 112.450795 166.000002 76.000002C 166.000002 39.549208 136.450795 10.000002 100.000002 10.000002C 63.549208 10.000002 34.000002 39.549208 34.000002 76.000002M 10 76C 10 79.313709 12.686292 82 16 82C 19.313709 82 22 79.313709 22 76C 22 72.686292 19.313709 70 16 70C 12.686292 70 10 72.686292 10 76"></path></g></g><g id="4.g-4_fr_1hbyrhf1n52ya0-fill" stroke="none" fill="#a6da37"><g><path d="M 109 208C 109 212.9706 104.9706 217 100 217C 95.0294 217 91 212.9706 91 208C 91 203.0294 95.0294 199 100 199C 104.9706 199 109 203.0294 109 208Z"></path></g></g></g><g id="g-root-5.g-5_2_fr_1cw59cz1n52z2a-fill" data-item-order="-824130" transform="translate(729, 234)"><g id="5.g-5_2_fr_1cw59cz1n52z2a-fill" stroke="none" fill="#ffe711"><g><path d="M 34 151C 34.000002 187.450795 63.549208 217.000002 100.000002 217.000002C 136.450795 217.000002 166.000002 187.450795 166.000002 151.000002C 166.000002 114.549208 136.450795 85.000002 100.000002 85.000002C 63.549208 85.000002 34.000002 114.549208 34.000002 151.000002M 10 151C 10 154.313709 12.686292 157 16 157C 19.313709 157 22 154.313709 22 151C 22 147.686292 19.313709 145 16 145C 12.686292 145 10 147.686292 10 151"></path></g></g><g id="5.g-5_2_fr_1cw59cz1n52z2a-fill" stroke="none" fill="#ffe711"><g><path d="M 109 19C 109 23.9706 104.9706 28 100 28C 95.0294 28 91 23.9706 91 19C 91 14.0294 95.0294 10 100 10C 104.9706 10 109 14.0294 109 19Z"></path></g></g></g><g id="g-root-6.g-6_fr_1414q771n52wp8-fill" data-item-order="-824118" transform="translate(897, 309)"><g id="6.g-6_fr_1414q771n52wp8-fill" stroke="none" fill="#f79438"><g><path d="M 34 76C 34.000002 112.450795 63.549208 142.000002 100.000002 142.000002C 136.450795 142.000002 166.000002 112.450795 166.000002 76.000002C 166.000002 39.549208 136.450795 10.000002 100.000002 10.000002C 63.549208 10.000002 34.000002 39.549208 34.000002 76.000002M 10 76C 10 79.313709 12.686292 82 16 82C 19.313709 82 22 79.313709 22 76C 22 72.686292 19.313709 70 16 70C 12.686292 70 10 72.686292 10 76"></path></g></g><g id="6.g-6_fr_1414q771n52wp8-fill" stroke="none" fill="#f79438"><g><path d="M 109 208C 109 212.9706 104.9706 217 100 217C 95.0294 217 91 212.9706 91 208C 91 203.0294 95.0294 199 100 199C 104.9706 199 109 203.0294 109 208Z"></path></g></g></g><g id="g-root-7.g-7_fr_1414q771n52wpa-fill" data-item-order="-824106" transform="translate(1065, 234)"><g id="7.g-7_fr_1414q771n52wpa-fill" stroke="none" fill="#fb6762"><g><path d="M 34 151C 34.000002 187.450795 63.549208 217.000002 100.000002 217.000002C 136.450795 217.000002 166.000002 187.450795 166.000002 151.000002C 166.000002 114.549208 136.450795 85.000002 100.000002 85.000002C 63.549208 85.000002 34.000002 114.549208 34.000002 151.000002M 10 151C 10 154.313709 12.686292 157 16 157C 19.313709 157 22 154.313709 22 151C 22 147.686292 19.313709 145 16 145C 12.686292 145 10 147.686292 10 151M 178 151C 178 154.313709 180.686292 157 184 157C 187.313709 157 190 154.313709 190 151C 190 147.686292 187.313709 145 184 145C 180.686292 145 178 147.686292 178 151"></path></g></g><g id="7.g-7_fr_1414q771n52wpa-fill" stroke="none" fill="#fb6762"><g><path d="M 109 19C 109 23.9706 104.9706 28 100 28C 95.0294 28 91 23.9706 91 19C 91 14.0294 95.0294 10 100 10C 104.9706 10 109 14.0294 109 19Z"></path></g></g></g><g id="g-root--1.line_fr_zlb82r1n52xhk-fill" data-item-order="-824093" transform="translate(147, 252)"></g><g id="g-root--1.line_1_fr_v5hpyb1n52y9u-fill" data-item-order="-824089" transform="translate(483, 252)"></g><g id="g-root--1.line_2_fr_v5hpyb1n52y9w-fill" data-item-order="-824085" transform="translate(819, 252)"></g><g id="g-root--1.line_3_fr_m9uppf1n52z2m-fill" data-item-order="-824081" transform="translate(1155, 252)"></g><g id="g-root--1.line_4_fr_qpo7tv1n52z28-fill" data-item-order="-824077" transform="translate(315, 441)"></g><g id="g-root--1.line_5_fr_hunoo31n52wp6-fill" data-item-order="-824073" transform="translate(651, 441)"></g><g id="g-root--1.line_6_fr_deu6jn1n52xhg-fill" data-item-order="-824069" transform="translate(987, 441)"></g><g id="g-root-tx_emailcon_v7d57n1n52xak-fill" data-item-order="0" transform="translate(723, 183)"><g id="tx_emailcon_v7d57n1n52xak-fill" stroke="none" fill="#fffbd5"><g><text style="font: 15px Roboto, sans-serif; white-space: pre;" font-size="15px" font-family="Roboto, sans-serif"><tspan x="12.26" y="27.6" dominant-baseline="ideographic">Email content is transferred </tspan><tspan x="74.81" y="45.6" dominant-baseline="ideographic">securely.</tspan></text></g></g></g><g id="g-root-tx_mxrecord_18i76hv1n52yve-fill" data-item-order="0" transform="translate(399, 183)"><g id="tx_mxrecord_18i76hv1n52yve-fill" stroke="none" fill="#dffff0"><g><text style="font: 15px Roboto, sans-serif; white-space: pre;" font-size="15px" font-family="Roboto, sans-serif"><tspan x="14.03" y="27.6" dominant-baseline="ideographic">MX records point to the </tspan><tspan x="18.33" y="45.6" dominant-baseline="ideographic">recipient's mail server.</tspan></text></g></g></g><g id="g-root-tx_emaildel_4j76ar1n52ya6-fill" data-item-order="0" transform="translate(543, 39)"><g id="tx_emaildel_4j76ar1n52ya6-fill" stroke="none" fill="#f4f4f4"><g><text style="font: 20px Roboto, sans-serif; white-space: pre;" font-size="20px" font-family="Roboto, sans-serif"><tspan x="17.1" y="34" dominant-baseline="ideographic">Email Delivery Process</tspan></text></g></g></g><g id="g-root-tx_smtphand_1lvjag31n4uivj-fill" data-item-order="0" transform="translate(561, 615)"><g id="tx_smtphand_1lvjag31n4uivj-fill" stroke="none" fill="#f2ffd7"><g><text style="font: 15px Roboto, sans-serif; white-space: pre;" font-size="15px" font-family="Roboto, sans-serif"><tspan x="15.71" y="30.6" dominant-baseline="ideographic">SMTP handshake begins </tspan><tspan x="15.74" y="48.6" dominant-baseline="ideographic">communication between </tspan><tspan x="71.73" y="66.6" dominant-baseline="ideographic">servers.</tspan></text></g></g></g><g id="g-root-tx_usercomp_1upap431n52whs-fill" data-item-order="0" transform="translate(39, 183)"><g id="tx_usercomp_1upap431n52whs-fill" stroke="none" fill="#ebf2ff"><g><text style="font: 15px Roboto, sans-serif; white-space: pre;" font-size="15px" font-family="Roboto, sans-serif"><tspan x="17.69" y="27.6" dominant-baseline="ideographic">User composes and sends an </tspan><tspan x="95.88" y="45.6" dominant-baseline="ideographic">email.</tspan></text></g></g></g><g id="g-root-tx_datatran_14305gj1n52whv-fill" data-item-order="0" transform="translate(723, 147)"><g id="tx_datatran_14305gj1n52whv-fill" stroke="none" fill="#fffbd5"><g><text style="font: bold 20px Roboto, sans-serif; white-space: pre;" font-weight="bold" font-size="20px" font-family="Roboto, sans-serif"><tspan x="14.79" y="34" dominant-baseline="ideographic">Data Transfer Phase</tspan></text></g></g></g><g id="g-root-empl_4l2lk31n52xan-fill" data-item-order="0" transform="translate(117, 345)"></g><g id="g-root-sear_1upas9v1n4uigz-fill" data-item-order="0" transform="translate(285, 345)"></g><g id="g-root-remo_1hfpp5v1n4uj2c-fill" data-item-order="0" transform="translate(453, 345)"></g><g id="g-root-tx_emaildel_qrjn371n52y2t-fill" data-item-order="0" transform="translate(1065, 123)"><g id="tx_emaildel_qrjn371n52y2t-fill" stroke="none" fill="#ffe9e8"><g><text style="font: bold 20px Roboto, sans-serif; white-space: pre;" font-weight="bold" font-size="20px" font-family="Roboto, sans-serif"><tspan x="19" y="34" dominant-baseline="ideographic">Email Delivered to </tspan><tspan x="13.21" y="58" dominant-baseline="ideographic">Recipient's Mailbox</tspan></text></g></g></g><g id="g-root-exch_1cvivfn1n575e2-fill" data-item-order="0" transform="translate(789, 345)"></g><g id="g-root-500_4jtqjn1n576rr-fill" data-item-order="0" transform="translate(957, 345)"></g><g id="g-root-mail_1lua9431n5bcay-fill" data-item-order="0" transform="translate(1125, 345)"></g><g id="g-root-tx_usersend_3do6b1n52z2f-fill" data-item-order="0" transform="translate(63, 147)"><g id="tx_usersend_3do6b1n52z2f-fill" stroke="none" fill="#ebf2ff"><g><text style="font: bold 20px Roboto, sans-serif; white-space: pre;" font-weight="bold" font-size="20px" font-family="Roboto, sans-serif"><tspan x="15.38" y="34" dominant-baseline="ideographic">User Sends Email</tspan></text></g></g></g><g id="g-root-tx_emaildel_dgplsz1n52why-fill" data-item-order="0" transform="translate(1053, 183)"><g id="tx_emaildel_dgplsz1n52why-fill" stroke="none" fill="#ffe9e8"><g><text style="font: 15px Roboto, sans-serif; white-space: pre;" font-size="15px" font-family="Roboto, sans-serif"><tspan x="15.54" y="27.6" dominant-baseline="ideographic">Email delivered to recipient's </tspan><tspan x="81.71" y="45.6" dominant-baseline="ideographic">mailbox.</tspan></text></g></g></g><g id="g-root-tx_serverlo_mccsdf1n4ui9w-fill" data-item-order="0" transform="translate(213, 531)"><g id="tx_serverlo_mccsdf1n4ui9w-fill" stroke="none" fill="#e5f8ff"><g><text style="font: bold 20px Roboto, sans-serif; white-space: pre;" font-weight="bold" font-size="20px" font-family="Roboto, sans-serif"><tspan x="13.57" y="34" dominant-baseline="ideographic">Server Looks Up DNS </tspan><tspan x="33.04" y="58" dominant-baseline="ideographic">MX/SPF Records</tspan></text></g></g></g><g id="g-root-tx_smtphand_5vqub1n4uhhq-fill" data-item-order="0" transform="translate(561, 531)"><g id="tx_smtphand_5vqub1n4uhhq-fill" stroke="none" fill="#f2ffd7"><g><text style="font: bold 20px Roboto, sans-serif; white-space: pre;" font-weight="bold" font-size="20px" font-family="Roboto, sans-serif"><tspan x="17.23" y="34" dominant-baseline="ideographic">SMTP Handshake </tspan><tspan x="61.03" y="58" dominant-baseline="ideographic">Initiates </tspan><tspan x="26.31" y="82" dominant-baseline="ideographic">Communication</tspan></text></g></g></g><g id="g-root-tx_serversa_1hfpsbn1n4ujns-fill" data-item-order="0" transform="translate(885, 531)"><g id="tx_serversa_1hfpsbn1n4ujns-fill" stroke="none" fill="#fff0e2"><g><text style="font: bold 20px Roboto, sans-serif; white-space: pre;" font-weight="bold" font-size="20px" font-family="Roboto, sans-serif"><tspan x="11.86" y="34" dominant-baseline="ideographic">Servers Acknowledge </tspan><tspan x="57.7" y="58" dominant-baseline="ideographic">Completion</tspan></text></g></g></g><g id="g-root-tx_serverch_91ir371n4ugp1-fill" data-item-order="0" transform="translate(219, 591)"><g id="tx_serverch_91ir371n4ugp1-fill" stroke="none" fill="#e5f8ff"><g><text style="font: 15px Roboto, sans-serif; white-space: pre;" font-size="15px" font-family="Roboto, sans-serif"><tspan x="14.82" y="27.6" dominant-baseline="ideographic">Server checks MX and SPF </tspan><tspan x="76.92" y="45.6" dominant-baseline="ideographic">records.</tspan></text></g></g></g><g id="g-root-tx_serversa_1d0irab1n4uha9-fill" data-item-order="0" transform="translate(909, 591)"><g id="tx_serversa_1d0irab1n4uha9-fill" stroke="none" fill="#fff0e2"><g><text style="font: 15px Roboto, sans-serif; white-space: pre;" font-size="15px" font-family="Roboto, sans-serif"><tspan x="15.18" y="27.6" dominant-baseline="ideographic">Servers acknowledge </tspan><tspan x="20.98" y="45.6" dominant-baseline="ideographic">successful delivery.</tspan></text></g></g></g><g id="g-root-tx_mxrecord_1hdu6qr1n52y2p-fill" data-item-order="0" transform="translate(375, 123)"><g id="tx_mxrecord_1hdu6qr1n52y2p-fill" stroke="none" fill="#dffff0"><g><text style="font: bold 20px Roboto, sans-serif; white-space: pre;" font-weight="bold" font-size="20px" font-family="Roboto, sans-serif"><tspan x="12.84" y="34" dominant-baseline="ideographic">MX Records Determine </tspan><tspan x="33.5" y="58" dominant-baseline="ideographic">Destination Server</tspan></text></g></g></g><g id="g-root-shar_qn6en71n4vvnr-fill" data-item-order="0" transform="translate(621, 345)"></g><g id="g-root-tf_4jttpf1n4vvv0-stroke" data-item-order="-982080" transform="translate(-9, -9)"></g><g id="g-root-0.g-0_fr_8x595v1n52ygw-stroke" data-item-order="-824195" transform="translate(63.21098327636719, 291)"><g id="0.g-0_fr_8x595v1n52ygw-stroke" fill="none" stroke-linecap="round" stroke-linejoin="round" stroke-miterlimit="4" stroke="#f4f4f4" stroke-width="2" stroke-dasharray="5.0, 7.0"><g><path d="M 177.578001 100C 174.501601 143.5917 138.163501 178 93.789001 178C 49.414501 178 13.076501 143.5917 10.000001 100M 345.578 88C 342.5016 44.4083 306.1635 10 261.789 10C 217.4145 10 181.0765 44.4083 178 88M 513.578016 100C 510.501616 143.5917 474.163516 178 429.789016 178C 385.414516 178 349.076516 143.5917 346.000016 100M 681.578016 88C 678.501616 44.4083 642.163516 10 597.789016 10C 553.414516 10 517.076516 44.4083 514.000016 88M 849.577955 100C 846.501555 143.5917 810.163455 178 765.788955 178C 721.414455 178 685.076455 143.5917 681.999955 100M 1017.577955 88C 1014.501555 44.4083 978.163455 10 933.788955 10C 889.414455 10 853.076455 44.4083 849.999955 88M 1185.577955 100C 1182.501555 143.5917 1146.163455 178 1101.788955 178C 1057.414455 178 1021.076455 143.5917 1017.999955 100"></path></g></g></g><g id="g-root-1.g-1_1_fr_24q031n52w3u-stroke" data-item-order="-824178" transform="translate(57, 234)"><g id="1.g-1_1_fr_24q031n52w3u-stroke" fill="none" stroke-linecap="round" stroke-linejoin="round" stroke-miterlimit="4" stroke="#2c2c2c" stroke-width="2"><g><path d="M 34 151C 34.000002 187.450795 63.549208 217.000002 100.000002 217.000002C 136.450795 217.000002 166.000002 187.450795 166.000002 151.000002C 166.000002 114.549208 136.450795 85.000002 100.000002 85.000002C 63.549208 85.000002 34.000002 114.549208 34.000002 151.000002M 10 151C 10 154.313709 12.686292 157 16 157C 19.313709 157 22 154.313709 22 151C 22 147.686292 19.313709 145 16 145C 12.686292 145 10 147.686292 10 151"></path></g></g><g id="1.g-1_1_fr_24q031n52w3u-stroke" fill="none" stroke-linecap="round" stroke-linejoin="round" stroke-miterlimit="4" stroke="#2c2c2c" stroke-width="2"><g><path d="M 109 19C 109 23.9706 104.9706 28 100 28C 95.0294 28 91 23.9706 91 19C 91 14.0294 95.0294 10 100 10C 104.9706 10 109 14.0294 109 19Z"></path></g></g></g><g id="g-root-2.g-2_fr_1unf9ur1n52wp0-stroke" data-item-order="-824166" transform="translate(225, 309)"><g id="2.g-2_fr_1unf9ur1n52wp0-stroke" fill="none" stroke-linecap="round" stroke-linejoin="round" stroke-miterlimit="4" stroke="#2c2c2c" stroke-width="2"><g><path d="M 34 76C 34.000002 112.450795 63.549208 142.000002 100.000002 142.000002C 136.450795 142.000002 166.000002 112.450795 166.000002 76.000002C 166.000002 39.549208 136.450795 10.000002 100.000002 10.000002C 63.549208 10.000002 34.000002 39.549208 34.000002 76.000002M 10 76C 10 79.313709 12.686292 82 16 82C 19.313709 82 22 79.313709 22 76C 22 72.686292 19.313709 70 16 70C 12.686292 70 10 72.686292 10 76"></path></g></g><g id="2.g-2_fr_1unf9ur1n52wp0-stroke" fill="none" stroke-linecap="round" stroke-linejoin="round" stroke-miterlimit="4" stroke="#2c2c2c" stroke-width="2"><g><path d="M 109 208C 109 212.9706 104.9706 217 100 217C 95.0294 217 91 212.9706 91 208C 91 203.0294 95.0294 199 100 199C 104.9706 199 109 203.0294 109 208Z"></path></g></g></g><g id="g-root-3.g-3_1_fr_1lrs9lv1n52xhq-stroke" data-item-order="-824154" transform="translate(393, 234)"><g id="3.g-3_1_fr_1lrs9lv1n52xhq-stroke" fill="none" stroke-linecap="round" stroke-linejoin="round" stroke-miterlimit="4" stroke="#2c2c2c" stroke-width="2"><g><path d="M 34 151C 34.000002 187.450795 63.549208 217.000002 100.000002 217.000002C 136.450795 217.000002 166.000002 187.450795 166.000002 151.000002C 166.000002 114.549208 136.450795 85.000002 100.000002 85.000002C 63.549208 85.000002 34.000002 114.549208 34.000002 151.000002M 10 151C 10 154.313709 12.686292 157 16 157C 19.313709 157 22 154.313709 22 151C 22 147.686292 19.313709 145 16 145C 12.686292 145 10 147.686292 10 151"></path></g></g><g id="3.g-3_1_fr_1lrs9lv1n52xhq-stroke" fill="none" stroke-linecap="round" stroke-linejoin="round" stroke-miterlimit="4" stroke="#2c2c2c" stroke-width="2"><g><path d="M 109 19C 109 23.9706 104.9706 28 100 28C 95.0294 28 91 23.9706 91 19C 91 14.0294 95.0294 10 100 10C 104.9706 10 109 14.0294 109 19Z"></path></g></g></g><g id="g-root-4.g-4_fr_1hbyrhf1n52ya0-stroke" data-item-order="-824142" transform="translate(561, 309)"><g id="4.g-4_fr_1hbyrhf1n52ya0-stroke" fill="none" stroke-linecap="round" stroke-linejoin="round" stroke-miterlimit="4" stroke="#2c2c2c" stroke-width="2"><g><path d="M 34 76C 34.000002 112.450795 63.549208 142.000002 100.000002 142.000002C 136.450795 142.000002 166.000002 112.450795 166.000002 76.000002C 166.000002 39.549208 136.450795 10.000002 100.000002 10.000002C 63.549208 10.000002 34.000002 39.549208 34.000002 76.000002M 10 76C 10 79.313709 12.686292 82 16 82C 19.313709 82 22 79.313709 22 76C 22 72.686292 19.313709 70 16 70C 12.686292 70 10 72.686292 10 76"></path></g></g><g id="4.g-4_fr_1hbyrhf1n52ya0-stroke" fill="none" stroke-linecap="round" stroke-linejoin="round" stroke-miterlimit="4" stroke="#2c2c2c" stroke-width="2"><g><path d="M 109 208C 109 212.9706 104.9706 217 100 217C 95.0294 217 91 212.9706 91 208C 91 203.0294 95.0294 199 100 199C 104.9706 199 109 203.0294 109 208Z"></path></g></g></g><g id="g-root-5.g-5_2_fr_1cw59cz1n52z2a-stroke" data-item-order="-824130" transform="translate(729, 234)"><g id="5.g-5_2_fr_1cw59cz1n52z2a-stroke" fill="none" stroke-linecap="round" stroke-linejoin="round" stroke-miterlimit="4" stroke="#2c2c2c" stroke-width="2"><g><path d="M 34 151C 34.000002 187.450795 63.549208 217.000002 100.000002 217.000002C 136.450795 217.000002 166.000002 187.450795 166.000002 151.000002C 166.000002 114.549208 136.450795 85.000002 100.000002 85.000002C 63.549208 85.000002 34.000002 114.549208 34.000002 151.000002M 10 151C 10 154.313709 12.686292 157 16 157C 19.313709 157 22 154.313709 22 151C 22 147.686292 19.313709 145 16 145C 12.686292 145 10 147.686292 10 151"></path></g></g><g id="5.g-5_2_fr_1cw59cz1n52z2a-stroke" fill="none" stroke-linecap="round" stroke-linejoin="round" stroke-miterlimit="4" stroke="#2c2c2c" stroke-width="2"><g><path d="M 109 19C 109 23.9706 104.9706 28 100 28C 95.0294 28 91 23.9706 91 19C 91 14.0294 95.0294 10 100 10C 104.9706 10 109 14.0294 109 19Z"></path></g></g></g><g id="g-root-6.g-6_fr_1414q771n52wp8-stroke" data-item-order="-824118" transform="translate(897, 309)"><g id="6.g-6_fr_1414q771n52wp8-stroke" fill="none" stroke-linecap="round" stroke-linejoin="round" stroke-miterlimit="4" stroke="#2c2c2c" stroke-width="2"><g><path d="M 34 76C 34.000002 112.450795 63.549208 142.000002 100.000002 142.000002C 136.450795 142.000002 166.000002 112.450795 166.000002 76.000002C 166.000002 39.549208 136.450795 10.000002 100.000002 10.000002C 63.549208 10.000002 34.000002 39.549208 34.000002 76.000002M 10 76C 10 79.313709 12.686292 82 16 82C 19.313709 82 22 79.313709 22 76C 22 72.686292 19.313709 70 16 70C 12.686292 70 10 72.686292 10 76"></path></g></g><g id="6.g-6_fr_1414q771n52wp8-stroke" fill="none" stroke-linecap="round" stroke-linejoin="round" stroke-miterlimit="4" stroke="#2c2c2c" stroke-width="2"><g><path d="M 109 208C 109 212.9706 104.9706 217 100 217C 95.0294 217 91 212.9706 91 208C 91 203.0294 95.0294 199 100 199C 104.9706 199 109 203.0294 109 208Z"></path></g></g></g><g id="g-root-7.g-7_fr_1414q771n52wpa-stroke" data-item-order="-824106" transform="translate(1065, 234)"><g id="7.g-7_fr_1414q771n52wpa-stroke" fill="none" stroke-linecap="round" stroke-linejoin="round" stroke-miterlimit="4" stroke="#2c2c2c" stroke-width="2"><g><path d="M 34 151C 34.000002 187.450795 63.549208 217.000002 100.000002 217.000002C 136.450795 217.000002 166.000002 187.450795 166.000002 151.000002C 166.000002 114.549208 136.450795 85.000002 100.000002 85.000002C 63.549208 85.000002 34.000002 114.549208 34.000002 151.000002M 10 151C 10 154.313709 12.686292 157 16 157C 19.313709 157 22 154.313709 22 151C 22 147.686292 19.313709 145 16 145C 12.686292 145 10 147.686292 10 151M 178 151C 178 154.313709 180.686292 157 184 157C 187.313709 157 190 154.313709 190 151C 190 147.686292 187.313709 145 184 145C 180.686292 145 178 147.686292 178 151"></path></g></g><g id="7.g-7_fr_1414q771n52wpa-stroke" fill="none" stroke-linecap="round" stroke-linejoin="round" stroke-miterlimit="4" stroke="#2c2c2c" stroke-width="2"><g><path d="M 109 19C 109 23.9706 104.9706 28 100 28C 95.0294 28 91 23.9706 91 19C 91 14.0294 95.0294 10 100 10C 104.9706 10 109 14.0294 109 19Z"></path></g></g></g><g id="g-root--1.line_fr_zlb82r1n52xhk-stroke" data-item-order="-824093" transform="translate(147, 252)"><g id="-1.line_fr_zlb82r1n52xhk-stroke" fill="none" stroke-linecap="round" stroke-linejoin="round" stroke-miterlimit="4" stroke="#f4f4f4" stroke-width="2"><g><path d="M 10 67L 10 10"></path></g></g></g><g id="g-root--1.line_1_fr_v5hpyb1n52y9u-stroke" data-item-order="-824089" transform="translate(483, 252)"><g id="-1.line_1_fr_v5hpyb1n52y9u-stroke" fill="none" stroke-linecap="round" stroke-linejoin="round" stroke-miterlimit="4" stroke="#f4f4f4" stroke-width="2"><g><path d="M 10 67L 10 10"></path></g></g></g><g id="g-root--1.line_2_fr_v5hpyb1n52y9w-stroke" data-item-order="-824085" transform="translate(819, 252)"><g id="-1.line_2_fr_v5hpyb1n52y9w-stroke" fill="none" stroke-linecap="round" stroke-linejoin="round" stroke-miterlimit="4" stroke="#f4f4f4" stroke-width="2"><g><path d="M 10 67L 10 10"></path></g></g></g><g id="g-root--1.line_3_fr_m9uppf1n52z2m-stroke" data-item-order="-824081" transform="translate(1155, 252)"><g id="-1.line_3_fr_m9uppf1n52z2m-stroke" fill="none" stroke-linecap="round" stroke-linejoin="round" stroke-miterlimit="4" stroke="#f4f4f4" stroke-width="2"><g><path d="M 10 67L 10 10"></path></g></g></g><g id="g-root--1.line_4_fr_qpo7tv1n52z28-stroke" data-item-order="-824077" transform="translate(315, 441)"><g id="-1.line_4_fr_qpo7tv1n52z28-stroke" fill="none" stroke-linecap="round" stroke-linejoin="round" stroke-miterlimit="4" stroke="#f4f4f4" stroke-width="2"><g><path d="M 10 67L 10 10"></path></g></g></g><g id="g-root--1.line_5_fr_hunoo31n52wp6-stroke" data-item-order="-824073" transform="translate(651, 441)"><g id="-1.line_5_fr_hunoo31n52wp6-stroke" fill="none" stroke-linecap="round" stroke-linejoin="round" stroke-miterlimit="4" stroke="#f4f4f4" stroke-width="2"><g><path d="M 10 67L 10 10"></path></g></g></g><g id="g-root--1.line_6_fr_deu6jn1n52xhg-stroke" data-item-order="-824069" transform="translate(987, 441)"><g id="-1.line_6_fr_deu6jn1n52xhg-stroke" fill="none" stroke-linecap="round" stroke-linejoin="round" stroke-miterlimit="4" stroke="#f4f4f4" stroke-width="2"><g><path d="M 10 67L 10 10"></path></g></g></g><g id="g-root-tx_emailcon_v7d57n1n52xak-stroke" data-item-order="0" transform="translate(723, 183)"></g><g id="g-root-tx_mxrecord_18i76hv1n52yve-stroke" data-item-order="0" transform="translate(399, 183)"></g><g id="g-root-tx_emaildel_4j76ar1n52ya6-stroke" data-item-order="0" transform="translate(543, 39)"></g><g id="g-root-tx_smtphand_1lvjag31n4uivj-stroke" data-item-order="0" transform="translate(561, 615)"></g><g id="g-root-tx_usercomp_1upap431n52whs-stroke" data-item-order="0" transform="translate(39, 183)"></g><g id="g-root-tx_datatran_14305gj1n52whv-stroke" data-item-order="0" transform="translate(723, 147)"></g><g id="g-root-empl_4l2lk31n52xan-stroke" data-item-order="0" transform="translate(117, 345)"><g id="empl_4l2lk31n52xan-stroke" fill="none" stroke-linecap="round" stroke-linejoin="round" stroke-miterlimit="4" stroke="#2c2c2c" stroke-width="2"><g><path d="M 56.25 67.5L 23.75 67.5L 19.525 50.599998C 19.342218 49.848442 19.517601 49.0546 20 48.450001C 20.471619 47.853157 21.18932 47.503506 21.950001 47.5L 58.049999 47.5C 58.81945 47.495857 59.547943 47.846268 60.025002 48.450001C 60.498672 49.058857 60.664742 49.852287 60.475002 50.599998ZM 12.5 67.5L 67.5 67.5M 40 40L 40 43.75M 32.5 16.825001C 35.233139 19.649788 38.994419 21.246302 42.924999 21.25C 44.90609 21.223074 46.86153 20.797979 48.674999 20M 31.25 21.25C 31.250002 26.082493 35.167511 30 40.000004 30C 44.832493 30 48.750004 26.082493 48.750004 21.25C 48.750004 16.417509 44.832493 12.500001 40.000004 12.500001C 35.167511 12.500001 31.250002 16.417509 31.250002 21.25M 36.875 56.875C 36.875 58.600887 38.274113 60 40 60C 41.725891 60 43.125 58.600887 43.125 56.875C 43.125 55.149113 41.725891 53.75 40 53.75C 38.274113 53.75 36.875 55.149113 36.875 56.875M 51.875 42.5C 50.188957 37.370319 45.399666 33.903126 40 33.903126C 34.600334 33.903126 29.811045 37.370319 28.125 42.5"></path></g></g></g><g id="g-root-sear_1upas9v1n4uigz-stroke" data-item-order="0" transform="translate(285, 345)"><g id="sear_1upas9v1n4uigz-stroke" fill="none" stroke-linecap="round" stroke-linejoin="round" stroke-miterlimit="4" stroke="#2c2c2c" stroke-width="2"><g><path d="M 63.75 21.25C 63.75 24.011423 61.511425 26.25 58.75 26.25L 16.25 26.25C 13.488576 26.25 11.25 24.011423 11.25 21.25L 11.25 16.25C 11.25 13.488576 13.488576 11.25 16.25 11.25L 58.75 11.25C 61.511425 11.25 63.75 13.488576 63.75 16.25ZM 16.25 41.25C 13.488576 41.25 11.25 39.011425 11.25 36.25L 11.25 31.25C 11.25 28.488577 13.488576 26.25 16.25 26.25L 58.75 26.25C 61.511425 26.25 63.75 28.488577 63.75 31.25L 63.75 35M 21.875 18.125C 21.529823 18.125 21.25 18.404821 21.25 18.75C 21.25 19.095179 21.529823 19.375 21.875 19.375C 22.220177 19.375 22.5 19.095179 22.5 18.75C 22.5 18.404821 22.220177 18.125 21.875 18.125L 21.875 18.125M 30.625 18.125C 30.279823 18.125 30 18.404821 30 18.75C 30 19.095179 30.279823 19.375 30.625 19.375C 30.970177 19.375 31.25 19.095179 31.25 18.75C 31.25 18.404821 30.970177 18.125 30.625 18.125L 30.625 18.125M 21.875 33.125C 21.529823 33.125 21.25 33.404823 21.25 33.75C 21.25 34.095177 21.529823 34.375 21.875 34.375C 22.220177 34.375 22.5 34.095177 22.5 33.75C 22.5 33.404823 22.220177 33.125 21.875 33.125L 21.875 33.125M 30.625 33.125C 30.279823 33.125 30 33.404823 30 33.75C 30 34.095177 30.279823 34.375 30.625 34.375C 30.970177 34.375 31.25 34.095177 31.25 33.75C 31.25 33.404823 30.970177 33.125 30.625 33.125L 30.625 33.125M 32.5 56.25L 16.25 56.25C 13.488576 56.25 11.25 54.011425 11.25 51.25L 11.25 46.25C 11.25 43.488575 13.488576 41.25 16.25 41.25L 36.25 41.25M 21.875 48.125C 21.529823 48.125 21.25 48.404823 21.25 48.75C 21.25 49.095177 21.529823 49.375 21.875 49.375C 22.220177 49.375 22.5 49.095177 22.5 48.75C 22.5 48.404823 22.220177 48.125 21.875 48.125L 21.875 48.125M 30.625 48.125C 30.279823 48.125 30 48.404823 30 48.75C 30 49.095177 30.279823 49.375 30.625 49.375C 30.970177 49.375 31.25 49.095177 31.25 48.75C 31.25 48.404823 30.970177 48.125 30.625 48.125L 30.625 48.125M 41.25 52.572498C 41.25 58.825741 46.319256 63.894997 52.572498 63.894997C 58.825741 63.894997 63.894997 58.825741 63.894997 52.572498C 63.894997 46.319256 58.825741 41.25 52.572498 41.25C 46.319256 41.25 41.25 46.319256 41.25 52.572498ZM 68.75 68.75L 60.630001 60.630001"></path></g></g></g><g id="g-root-remo_1hfpp5v1n4uj2c-stroke" data-item-order="0" transform="translate(453, 345)"><g id="remo_1hfpp5v1n4uj2c-stroke" fill="none" stroke-linecap="round" stroke-linejoin="round" stroke-miterlimit="4" stroke="#2c2c2c" stroke-width="2"><g><path d="M 63.75 21.25C 63.75 24.011423 61.511425 26.25 58.75 26.25L 16.25 26.25C 13.488576 26.25 11.25 24.011423 11.25 21.25L 11.25 16.25C 11.25 13.488576 13.488576 11.25 16.25 11.25L 58.75 11.25C 61.511425 11.25 63.75 13.488576 63.75 16.25ZM 16.25 41.25C 13.488576 41.25 11.25 39.011425 11.25 36.25L 11.25 31.25C 11.25 28.488577 13.488576 26.25 16.25 26.25L 58.75 26.25C 61.511425 26.25 63.75 28.488577 63.75 31.25L 63.75 35M 21.875 18.125C 21.529823 18.125 21.25 18.404821 21.25 18.75C 21.25 19.095179 21.529823 19.375 21.875 19.375C 22.220177 19.375 22.5 19.095179 22.5 18.75C 22.5 18.404821 22.220177 18.125 21.875 18.125L 21.875 18.125M 30.625 18.125C 30.279823 18.125 30 18.404821 30 18.75C 30 19.095179 30.279823 19.375 30.625 19.375C 30.970177 19.375 31.25 19.095179 31.25 18.75C 31.25 18.404821 30.970177 18.125 30.625 18.125L 30.625 18.125M 21.875 33.125C 21.529823 33.125 21.25 33.404823 21.25 33.75C 21.25 34.095177 21.529823 34.375 21.875 34.375C 22.220177 34.375 22.5 34.095177 22.5 33.75C 22.5 33.404823 22.220177 33.125 21.875 33.125L 21.875 33.125M 30.625 33.125C 30.279823 33.125 30 33.404823 30 33.75C 30 34.095177 30.279823 34.375 30.625 34.375C 30.970177 34.375 31.25 34.095177 31.25 33.75C 31.25 33.404823 30.970177 33.125 30.625 33.125L 30.625 33.125M 32.5 56.25L 16.25 56.25C 13.488576 56.25 11.25 54.011425 11.25 51.25L 11.25 46.25C 11.25 43.488575 13.488576 41.25 16.25 41.25L 36.25 41.25M 21.875 48.125C 21.529823 48.125 21.25 48.404823 21.25 48.75C 21.25 49.095177 21.529823 49.375 21.875 49.375C 22.220177 49.375 22.5 49.095177 22.5 48.75C 22.5 48.404823 22.220177 48.125 21.875 48.125L 21.875 48.125M 30.625 48.125C 30.279823 48.125 30 48.404823 30 48.75C 30 49.095177 30.279823 49.375 30.625 49.375C 30.970177 49.375 31.25 49.095177 31.25 48.75C 31.25 48.404823 30.970177 48.125 30.625 48.125L 30.625 48.125M 38.75 53.75C 38.750004 62.034271 45.465729 68.75 53.75 68.75C 62.034271 68.75 68.75 62.034271 68.75 53.75C 68.75 45.465729 62.034271 38.750004 53.75 38.750004C 45.465729 38.750004 38.750004 45.465729 38.750004 53.75ZM 59.052502 48.447498L 48.447498 59.052502M 59.052502 59.052502L 48.447498 48.447498"></path></g></g></g><g id="g-root-tx_emaildel_qrjn371n52y2t-stroke" data-item-order="0" transform="translate(1065, 123)"></g><g id="g-root-exch_1cvivfn1n575e2-stroke" data-item-order="0" transform="translate(789, 345)"><g id="exch_1cvivfn1n575e2-stroke" fill="none" stroke-linecap="round" stroke-linejoin="round" stroke-miterlimit="4" stroke="#2c2c2c" stroke-width="2"><g><path d="M 21.25 30L 21.25 24.375C 21.249334 21.887091 22.237871 19.500999 23.997791 17.742487C 25.757711 15.983974 28.144592 14.997346 30.6325 15L 35 15M 26.2575 25L 21.2575 30L 16.2575 25M 31.2575 11.25L 35.0075 15L 31.2575 18.75M 22.5 60.625C 22.154823 60.625 21.875 60.904823 21.875 61.25C 21.875 61.595177 22.154823 61.875 22.5 61.875C 22.845177 61.875 23.125 61.595177 23.125 61.25C 23.125 60.904823 22.845177 60.625 22.5 60.625L 22.5 60.625M 33.75 66.25C 33.75 67.630707 32.630714 68.75 31.25 68.75L 13.75 68.75C 12.369288 68.75 11.25 67.630707 11.25 66.25L 11.25 38.75C 11.25 37.369286 12.369288 36.25 13.75 36.25L 31.25 36.25C 32.630714 36.25 33.75 37.369286 33.75 38.75ZM 68.75 16.25C 68.75 19.011423 66.511429 21.25 63.75 21.25L 51.25 21.25C 48.488575 21.25 46.25 19.011423 46.25 16.25C 46.25 13.488576 48.488575 11.25 51.25 11.25L 63.75 11.25C 66.511429 11.25 68.75 13.488576 68.75 16.25ZM 53.125 15.625C 52.779823 15.625 52.5 15.904821 52.5 16.25C 52.5 16.595179 52.779823 16.875 53.125 16.875C 53.470177 16.875 53.75 16.595179 53.75 16.25C 53.75 15.904821 53.470177 15.625 53.125 15.625L 53.125 15.625M 68.75 26.25C 68.75 29.011423 66.511429 31.25 63.75 31.25L 51.25 31.25C 48.488575 31.25 46.25 29.011423 46.25 26.25C 46.25 23.488577 48.488575 21.25 51.25 21.25L 63.75 21.25C 66.511429 21.25 68.75 23.488577 68.75 26.25ZM 53.125 25.625C 52.779823 25.625 52.5 25.904823 52.5 26.25C 52.5 26.595177 52.779823 26.875 53.125 26.875C 53.470177 26.875 53.75 26.595177 53.75 26.25C 53.75 25.904823 53.470177 25.625 53.125 25.625L 53.125 25.625M 68.75 36.25C 68.75 39.011425 66.511429 41.25 63.75 41.25L 51.25 41.25C 48.488575 41.25 46.25 39.011425 46.25 36.25C 46.25 33.488575 48.488575 31.25 51.25 31.25L 63.75 31.25C 66.511429 31.25 68.75 33.488575 68.75 36.25ZM 53.125 35.625C 52.779823 35.625 52.5 35.904823 52.5 36.25C 52.5 36.595177 52.779823 36.875 53.125 36.875C 53.470177 36.875 53.75 36.595177 53.75 36.25C 53.75 35.904823 53.470177 35.625 53.125 35.625L 53.125 35.625"></path></g></g></g><g id="g-root-500_4jtqjn1n576rr-stroke" data-item-order="0" transform="translate(957, 345)"><g id="500_4jtqjn1n576rr-stroke" fill="none" stroke-linecap="round" stroke-linejoin="round" stroke-miterlimit="4" stroke="#2c2c2c" stroke-width="2"><g><path d="M 16.252501 46.25L 16.252501 18.75C 16.252501 15.988577 18.491076 13.75 21.252501 13.75L 58.752499 13.75C 61.513924 13.75 63.752499 15.988577 63.752499 18.75L 63.752499 46.25M 16.247499 26.24L 63.747501 26.24M 32.502502 20.615C 32.157322 20.615 31.877501 20.335178 31.877501 19.99C 31.877501 19.644821 32.157322 19.365 32.502502 19.365M 32.502502 20.615C 32.847679 20.615 33.127502 20.335178 33.127502 19.99C 33.127502 19.644821 32.847679 19.365 32.502502 19.365M 25.002501 20.615C 24.657322 20.615 24.377501 20.335178 24.377501 19.99C 24.377501 19.644821 24.657322 19.365 25.002501 19.365M 25.002501 20.615C 25.347677 20.615 25.627501 20.335178 25.627501 19.99C 25.627501 19.644821 25.347677 19.365 25.002501 19.365M 39.994999 20.615C 39.649822 20.615 39.369999 20.335178 39.369999 19.99C 39.369999 19.644821 39.649822 19.365 39.994999 19.365M 39.994999 20.615C 40.340179 20.615 40.619999 20.335178 40.619999 19.99C 40.619999 19.644821 40.340179 19.365 39.994999 19.365M 30.725 35.3125L 24.0825 35.3125L 23.42 42.612499L 24.952499 41.8475C 25.690001 41.477501 26.502499 41.285 27.327501 41.285L 27.4025 41.285C 29.602501 41.285 31.385 43.067501 31.385 45.267502L 31.385 47.260002C 31.385 49.459999 29.602501 51.2425 27.4025 51.2425C 25.6675 51.2425 23.967499 50.1325 23.42 48.587502M 36.325001 39.295002L 36.325001 47.260002C 36.325001 49.459476 38.108028 51.242504 40.307503 51.242504C 42.506977 51.242504 44.290001 49.459476 44.290001 47.260002L 44.290001 39.295002C 44.326244 37.848854 43.575447 36.496777 42.328735 35.763035C 41.082027 35.029297 39.535477 35.029297 38.288769 35.763035C 37.042057 36.496777 36.29126 37.848854 36.327499 39.295002ZM 49.23 39.295002L 49.23 47.260002C 49.230003 49.459476 51.013027 51.242504 53.212505 51.242504C 55.41198 51.242504 57.195 49.459476 57.195 47.260002L 57.195 39.295002C 57.195 37.095528 55.41198 35.312504 53.212505 35.312504C 51.013027 35.312504 49.230003 37.095528 49.230003 39.295002ZM 46.857498 60.142498L 46.857498 65.254997C 46.857277 66.666939 48.001816 67.811653 49.41375 67.811653C 50.825687 67.811653 51.970222 66.666939 51.970001 65.255005L 51.970001 60.142498C 51.926819 58.761833 50.795094 57.664951 49.41375 57.664951C 48.03241 57.664951 46.900681 58.761833 46.857498 60.142502ZM 23.58 57.587502L 18.467501 57.587502L 18.467501 67.8125L 23.58 67.8125M 18.467501 62.275002L 22.725 62.275002M 28.2225 67.8125L 28.2225 63.549999M 28.2225 63.549999L 28.2225 57.584999L 30.352499 57.584999C 32 57.584999 33.334999 58.920002 33.334999 60.567497L 33.334999 60.567497C 33.334999 62.212502 32 63.547501 30.352499 63.547501L 28.2225 63.547501ZM 31.630001 63.549999L 33.759998 67.809998M 37.637501 67.8125L 37.637501 63.549999M 37.637501 63.549999L 37.637501 57.584999L 39.767498 57.584999C 41.415001 57.584999 42.75 58.920002 42.75 60.567497L 42.75 60.567497C 42.75 62.212502 41.415001 63.547501 39.767498 63.547501L 37.637501 63.547501ZM 41.045002 63.549999L 43.175003 67.809998M 56.612503 67.8125L 56.612503 63.549999M 56.612503 63.549999L 56.612503 57.584999L 58.7425 57.584999C 60.389999 57.584999 61.725002 58.920002 61.725002 60.567497L 61.725002 60.567497C 61.725002 62.212502 60.389999 63.547501 58.7425 63.547501L 56.612503 63.547501ZM 60.019997 63.549999L 62.150002 67.809998"></path></g></g></g><g id="g-root-mail_1lua9431n5bcay-stroke" data-item-order="0" transform="translate(1125, 345)"><g id="mail_1lua9431n5bcay-stroke" fill="none" stroke-linecap="round" stroke-linejoin="round" stroke-miterlimit="4" stroke="#2c2c2c" stroke-width="2"><g><path d="M 68.75 15L 68.75 31.25C 68.75 32.630714 67.630707 33.75 66.25 33.75L 41.25 33.75C 39.869286 33.75 38.75 32.630714 38.75 31.25L 38.75 15M 68.75 15L 68.75 13.75C 68.75 12.369288 67.630707 11.25 66.25 11.25L 41.25 11.25C 39.869286 11.25 38.75 12.369288 38.75 13.75L 38.75 15L 51.75 23.1325C 52.966019 23.892513 54.508987 23.892513 55.725002 23.1325ZM 23.75 37.5L 23.75 45M 28.75 68.75L 30 53.75L 36.25 53.75L 36.25 45C 36.25 38.096443 30.653561 32.5 23.75 32.5C 16.846441 32.5 11.25 38.096443 11.25 45L 11.25 53.75L 17.5 53.75L 18.75 68.75ZM 16.209999 15.5575C 18.947859 18.397079 22.723 20.000814 26.6675 20C 28.644588 20.000452 30.60104 19.598103 32.4175 18.817501M 15 20C 15.000001 24.832493 18.917509 28.75 23.750002 28.75C 28.582493 28.75 32.5 24.832493 32.5 20C 32.5 15.167509 28.582493 11.25 23.750002 11.25C 18.917509 11.25 15.000001 15.167509 15.000001 20Z"></path></g></g></g><g id="g-root-tx_usersend_3do6b1n52z2f-stroke" data-item-order="0" transform="translate(63, 147)"></g><g id="g-root-tx_emaildel_dgplsz1n52why-stroke" data-item-order="0" transform="translate(1053, 183)"></g><g id="g-root-tx_serverlo_mccsdf1n4ui9w-stroke" data-item-order="0" transform="translate(213, 531)"></g><g id="g-root-tx_smtphand_5vqub1n4uhhq-stroke" data-item-order="0" transform="translate(561, 531)"></g><g id="g-root-tx_serversa_1hfpsbn1n4ujns-stroke" data-item-order="0" transform="translate(885, 531)"></g><g id="g-root-tx_serverch_91ir371n4ugp1-stroke" data-item-order="0" transform="translate(219, 591)"></g><g id="g-root-tx_serversa_1d0irab1n4uha9-stroke" data-item-order="0" transform="translate(909, 591)"></g><g id="g-root-tx_mxrecord_1hdu6qr1n52y2p-stroke" data-item-order="0" transform="translate(375, 123)"></g><g id="g-root-shar_qn6en71n4vvnr-stroke" data-item-order="0" transform="translate(621, 345)"><g id="shar_qn6en71n4vvnr-stroke" fill="none" stroke-linecap="round" stroke-linejoin="round" stroke-miterlimit="4" stroke="#2c2c2c" stroke-width="2"><g><path d="M 44.4725 11.25L 66.195 11.25C 66.195 11.25 68.75 11.25 68.75 13.805L 68.75 34.25C 68.75 34.25 68.75 36.805 66.195 36.805L 44.4725 36.805C 44.4725 36.805 41.9175 36.805 41.9175 34.25L 41.9175 13.805C 41.9175 13.805 41.9175 11.25 44.4725 11.25M 41.9175 19.952499L 68.75 19.952499M 41.9175 28.380001L 68.75 28.380001M 54.052502 19.952499L 54.052502 36.805M 61.247501 19.952499L 61.247501 36.805M 22.75 27L 17 32.5L 17 27C 17.082024 22.847841 20.515373 19.548824 24.6675 19.6325L 34.25 19.6325M 11.25 27L 17 32.512501M 28.5 14.1125L 34.25 19.6325L 28.5 25.1525M 13.805 39.360001L 27.862499 39.360001C 27.862499 39.360001 30.4175 39.360001 30.4175 41.915001L 30.4175 66.195C 30.4175 66.195 30.4175 68.75 27.862499 68.75L 13.805 68.75C 13.805 68.75 11.25 68.75 11.25 66.195L 11.25 41.915001C 11.25 41.915001 11.25 39.360001 13.805 39.360001M 11.25 61.0825L 30.4175 61.0825"></path></g></g></g></g></g></svg>