<?xml version="1.0" encoding="utf-8" standalone="yes"?>
<!DOCTYPE svg PUBLIC "-//W3C//DTD SVG 1.1//EN" "http://www.w3.org/Graphics/SVG/1.1/DTD/svg11.dtd">
<svg width="770" height="590" viewBox="0 0 770 590" style="fill:none;stroke:none;fill-rule:evenodd;clip-rule:evenodd;stroke-linecap:round;stroke-linejoin:round;stroke-miterlimit:1.5;" version="1.1" xmlns="http://www.w3.org/2000/svg" xmlns:xlink="http://www.w3.org/1999/xlink"><style class="text-font-style fontImports" data-font-family="Roboto">@import url('https://fonts.googleapis.com/css2?family=Roboto:wght@400;700&amp;display=block');</style><g id="items" style="isolation: isolate"><g id="blend" style="mix-blend-mode: normal"><g id="g-root--1.line_sy_zlb4wj1oj6ivg-fill" data-item-order="-138233" transform="translate(666, 326.99609375)"></g><g id="g-root--1.vector_sy_v5hms31oj6jnp-fill" data-item-order="-138231" transform="translate(15, 326.99609375)"></g><g id="g-root-7.cr-big_cr_v5hms31oj6jnq-fill" data-item-order="-138228" transform="translate(627, 231)"><g id="7.cr-big_cr_v5hms31oj6jnq-fill" stroke="none" fill="#68403f"><g><path d="M 10 46C 10 65.882251 26.117749 82 46 82C 65.882251 82 82 65.882251 82 46C 82 26.117749 65.882251 10 46 10C 26.117749 10 10 26.117749 10 46"></path></g></g></g><g id="g-root-7.cu-smallCircle_sy_mah3mb1oj6han-fill" data-item-order="-138225" transform="translate(660, 323.99609375)"></g><g id="g-root-7.ln_ln_qqalqr1oj6ha8-fill" data-item-order="-138223" transform="translate(663, 303)"></g><g id="g-root-6.cr-big_cr_hunlhv1oj6i2x-fill" data-item-order="-138220" transform="translate(531, 350.998046875)"><g id="6.cr-big_cr_hunlhv1oj6i2x-fill" stroke="none" fill="#5c4938"><g><path d="M 10 46C 10 65.882251 26.117749 82 46 82C 65.882251 82 82 65.882251 82 46C 82 26.117749 65.882251 10 46 10C 26.117749 10 10 26.117749 10 46"></path></g></g></g><g id="g-root-6.cu-smallCircle_sy_hunlhv1oj6i2y-fill" data-item-order="-138217" transform="translate(564, 324.001953125)"></g><g id="g-root-6.ln_ln_deu3df1oj6iv7-fill" data-item-order="-138215" transform="translate(567, 330.001953125)"></g><g id="g-root-5.cr-big_cr_4j734j1oj6jnw-fill" data-item-order="-138212" transform="translate(435, 231)"><g id="5.cr-big_cr_4j734j1oj6jnw-fill" stroke="none" fill="#54502f"><g><path d="M 10 46C 10 65.882251 26.117749 82 46 82C 65.882251 82 82 65.882251 82 46C 82 26.117749 65.882251 10 46 10C 26.117749 10 10 26.117749 10 46"></path></g></g></g><g id="g-root-5.cu-smallCircle_sy_4j734j1oj6jnx-fill" data-item-order="-138209" transform="translate(468, 323.99609375)"></g><g id="g-root-5.ln_ln_402371oj6hae-fill" data-item-order="-138207" transform="translate(471, 303)"></g><g id="g-root-4.cr-big_cr_402371oj6haf-fill" data-item-order="-138204" transform="translate(339, 350.998046875)"><g id="4.cr-big_cr_402371oj6haf-fill" stroke="none" fill="#4b533a"><g><path d="M 10 46C 10 65.882251 26.117749 82 46 82C 65.882251 82 82 65.882251 82 46C 82 26.117749 65.882251 10 46 10C 26.117749 10 10 26.117749 10 46"></path></g></g></g><g id="g-root-4.cu-smallCircle_sy_1upalxv1oj6hvk-fill" data-item-order="-138201" transform="translate(372, 324.001953125)"></g><g id="g-root-4.ln_ln_1upalxv1oj6hvl-fill" data-item-order="-138199" transform="translate(375, 330.001953125)"></g><g id="g-root-3.cr-big_cr_1ltnloz1oj6ioa-fill" data-item-order="-138196" transform="translate(243, 231)"><g id="3.cr-big_cr_1ltnloz1oj6ioa-fill" stroke="none" fill="#3b5649"><g><path d="M 10 46C 10 65.882251 26.117749 82 46 82C 65.882251 82 82 65.882251 82 46C 82 26.117749 65.882251 10 46 10C 26.117749 10 10 26.117749 10 46"></path></g></g></g><g id="g-root-3.cu-smallCircle_sy_1ltnloz1oj6iob-fill" data-item-order="-138193" transform="translate(276, 323.99609375)"></g><g id="g-root-3.ln_ln_1hdu3kj1oj6jgk-fill" data-item-order="-138191" transform="translate(279, 303)"></g><g id="g-root-2.cr-big_cr_1hdu3kj1oj6jgl-fill" data-item-order="-138188" transform="translate(147, 351)"><g id="2.cr-big_cr_1hdu3kj1oj6jgl-fill" stroke="none" fill="#344e57"><g><path d="M 10 46C 10 65.882251 26.117749 82 46 82C 65.882251 82 82 65.882251 82 46C 82 26.117749 65.882251 10 46 10C 26.117749 10 10 26.117749 10 46"></path></g></g></g><g id="g-root-2.cu-smallCircle_sy_18i73bn1oj6k9a-fill" data-item-order="-138185" transform="translate(180, 324.001953125)"></g><g id="g-root-2.ln_ln_18i73bn1oj6k9b-fill" data-item-order="-138183" transform="translate(183, 330.001953125)"></g><g id="g-root-1.cr-big_cr_14302ab1oj6hvs-fill" data-item-order="-138180" transform="translate(51, 231)"><g id="1.cr-big_cr_14302ab1oj6hvs-fill" stroke="none" fill="#3e4e69"><g><path d="M 10 46C 10 65.882251 26.117749 82 46 82C 65.882251 82 82 65.882251 82 46C 82 26.117749 65.882251 10 46 10C 26.117749 10 10 26.117749 10 46"></path></g></g></g><g id="g-root-1.cu-smallCircle_sy_14302ab1oj6hvt-fill" data-item-order="-138177" transform="translate(84, 323.99609375)"></g><g id="g-root-1.ln_ln_zn6k5v1oj6io2-fill" data-item-order="-138175" transform="translate(87, 303)"></g><g id="g-root-mail_qrjjwz1oj6jgr-fill" data-item-order="0" transform="translate(639, 243)"></g><g id="g-root-exch_hrjb831oiy3ur-fill" data-item-order="0" transform="translate(447, 243)"></g><g id="g-root-remo_v98kgj1oj0vf1-fill" data-item-order="0" transform="translate(255, 243)"></g><g id="g-root-tx_serversa_1umssr71ojaq6j-fill" data-item-order="0" transform="translate(501, 435)"><g id="tx_serversa_1umssr71ojaq6j-fill" stroke="none" fill="#f4f4f4"><g><text style="font: 20px Roboto, sans-serif; white-space: pre;" font-size="20px" font-family="Roboto, sans-serif"><tspan x="40.17" y="34" dominant-baseline="ideographic">Servers </tspan><tspan x="13.66" y="58" dominant-baseline="ideographic">Acknowledge </tspan><tspan x="22.26" y="82" dominant-baseline="ideographic">Completion</tspan></text></g></g></g><g id="g-root-tx_datatran_m9upoz1ojapdx-fill" data-item-order="0" transform="translate(405, 171)"><g id="tx_datatran_m9upoz1ojapdx-fill" stroke="none" fill="#f4f4f4"><g><text style="font: 20px Roboto, sans-serif; white-space: pre;" font-size="20px" font-family="Roboto, sans-serif"><tspan x="13.55" y="34" dominant-baseline="ideographic">Data Transfer </tspan><tspan x="45.8" y="58" dominant-baseline="ideographic">Phase</tspan></text></g></g></g><g id="g-root-tx_usersend_1cxe7ir1ojark1-fill" data-item-order="0" transform="translate(27, 171)"><g id="tx_usersend_1cxe7ir1ojark1-fill" stroke="none" fill="#f4f4f4"><g><text style="font: 20px Roboto, sans-serif; white-space: pre;" font-size="20px" font-family="Roboto, sans-serif"><tspan x="17.14" y="34" dominant-baseline="ideographic">User Sends </tspan><tspan x="42.76" y="58" dominant-baseline="ideographic">Email</tspan></text></g></g></g><g id="g-root-tx_emaildel_zitbpv1ojaryh-fill" data-item-order="0" transform="translate(591, 147)"><g id="tx_emaildel_zitbpv1ojaryh-fill" stroke="none" fill="#f4f4f4"><g><text style="font: 20px Roboto, sans-serif; white-space: pre;" font-size="20px" font-family="Roboto, sans-serif"><tspan x="12.36" y="34" dominant-baseline="ideographic">Email Delivered </tspan><tspan x="21.48" y="58" dominant-baseline="ideographic">to Recipient's </tspan><tspan x="45.43" y="82" dominant-baseline="ideographic">Mailbox</tspan></text></g></g></g><g id="g-root-tx_mxrecord_1lt17rn1ojapzj-fill" data-item-order="0" transform="translate(219, 123)"><g id="tx_mxrecord_1lt17rn1ojapzj-fill" stroke="none" fill="#f4f4f4"><g><text style="font: 20px Roboto, sans-serif; white-space: pre;" font-size="20px" font-family="Roboto, sans-serif"><tspan x="13.46" y="34" dominant-baseline="ideographic">MX Records </tspan><tspan x="21.66" y="58" dominant-baseline="ideographic">Determine </tspan><tspan x="16.89" y="82" dominant-baseline="ideographic">Destination </tspan><tspan x="39.32" y="106" dominant-baseline="ideographic">Server</tspan></text></g></g></g><g id="g-root-sear_940h3n1oj3ocp-fill" data-item-order="0" transform="translate(159, 363)"></g><g id="g-root-shar_hunonn1oizifc-fill" data-item-order="0" transform="translate(351, 363)"></g><g id="g-root-1_1q9h6z71oivbpi-fill" data-item-order="0" transform="translate(543, 363)"></g><g id="g-root-tx_serverlo_1hd7pn71ojaqrs-fill" data-item-order="0" transform="translate(117, 435)"><g id="tx_serverlo_1hd7pn71ojaqrs-fill" stroke="none" fill="#f4f4f4"><g><text style="font: 20px Roboto, sans-serif; white-space: pre;" font-size="20px" font-family="Roboto, sans-serif"><tspan x="15.82" y="34" dominant-baseline="ideographic">Server Looks </tspan><tspan x="39.3" y="58" dominant-baseline="ideographic">Up DNS </tspan><tspan x="36.54" y="82" dominant-baseline="ideographic">MX/SPF </tspan><tspan x="37.02" y="106" dominant-baseline="ideographic">Records</tspan></text></g></g></g><g id="g-root-tx_smtphand_2r72r1ojarri-fill" data-item-order="0" transform="translate(297, 435)"><g id="tx_smtphand_2r72r1ojarri-fill" stroke="none" fill="#f4f4f4"><g><text style="font: 20px Roboto, sans-serif; white-space: pre;" font-size="20px" font-family="Roboto, sans-serif"><tspan x="61.19" y="34" dominant-baseline="ideographic">SMTP </tspan><tspan x="37.88" y="58" dominant-baseline="ideographic">Handshake </tspan><tspan x="52.44" y="82" dominant-baseline="ideographic">Initiates </tspan><tspan x="17.18" y="106" dominant-baseline="ideographic">Communication</tspan></text></g></g></g><g id="g-root-tx_emaildel_hx5l031ojaqku-fill" data-item-order="0" transform="translate(267, 39)"><g id="tx_emaildel_hx5l031ojaqku-fill" stroke="none" fill="#f4f4f4"><g><text style="font: 20px Roboto, sans-serif; white-space: pre;" font-size="20px" font-family="Roboto, sans-serif"><tspan x="17.1" y="34" dominant-baseline="ideographic">Email Delivery Process</tspan></text></g></g></g><g id="g-root-empl_1qaq55f1oj7wn7-fill" data-item-order="0" transform="translate(63, 243)"></g><g id="g-root--1.line_sy_zlb4wj1oj6ivg-stroke" data-item-order="-138233" transform="translate(666, 326.99609375)"><g id="-1.line_sy_zlb4wj1oj6ivg-stroke" fill="none" stroke-linecap="round" stroke-linejoin="round" stroke-miterlimit="4" stroke="#b7b7b7" stroke-width="2"><g><path d="M 77 10.003906L 10 10.003906"></path><path d="M 71 16.503906L 77.5 10.003906L 71 3.503906" stroke-dasharray="none"></path></g></g></g><g id="g-root--1.vector_sy_v5hms31oj6jnp-stroke" data-item-order="-138231" transform="translate(15, 326.99609375)"><g id="-1.vector_sy_v5hms31oj6jnp-stroke" fill="none" stroke-linecap="round" stroke-linejoin="round" stroke-miterlimit="4" stroke="#b7b7b7" stroke-width="2"><g><path d="M 655 10L 565 10M 559 10L 469 10M 78.9976 10L 10 10M 174.9976 10L 84.9976 10M 271 10L 181 10M 367 10L 277 10M 463 10L 373 10"></path></g></g></g><g id="g-root-7.cr-big_cr_v5hms31oj6jnq-stroke" data-item-order="-138228" transform="translate(627, 231)"><g id="7.cr-big_cr_v5hms31oj6jnq-stroke" fill="none" stroke-linecap="round" stroke-linejoin="round" stroke-miterlimit="4" stroke="#fb6762" stroke-width="2"><g><path d="M 10 46C 10 65.882251 26.117749 82 46 82C 65.882251 82 82 65.882251 82 46C 82 26.117749 65.882251 10 46 10C 26.117749 10 10 26.117749 10 46"></path></g></g></g><g id="g-root-7.cu-smallCircle_sy_mah3mb1oj6han-stroke" data-item-order="-138225" transform="translate(660, 323.99609375)"><g id="7.cu-smallCircle_sy_mah3mb1oj6han-stroke" fill="none" stroke-linecap="round" stroke-linejoin="round" stroke-miterlimit="4" stroke="#fb6762" stroke-width="2"><g><path d="M 16 13C 16 14.6569 14.6569 16 13 16C 11.3431 16 10 14.6569 10 13C 10 11.3431 11.3431 10 13 10C 14.6569 10 16 11.3431 16 13Z"></path></g></g></g><g id="g-root-7.ln_ln_qqalqr1oj6ha8-stroke" data-item-order="-138223" transform="translate(663, 303)"><g id="7.ln_ln_qqalqr1oj6ha8-stroke" fill="none" stroke-linecap="round" stroke-linejoin="round" stroke-miterlimit="4" stroke="#fb6762" stroke-width="2"><g><path d="M 10 10L 10 20.5L 10 31"></path></g></g></g><g id="g-root-6.cr-big_cr_hunlhv1oj6i2x-stroke" data-item-order="-138220" transform="translate(531, 350.998046875)"><g id="6.cr-big_cr_hunlhv1oj6i2x-stroke" fill="none" stroke-linecap="round" stroke-linejoin="round" stroke-miterlimit="4" stroke="#f79438" stroke-width="2"><g><path d="M 10 46C 10 65.882251 26.117749 82 46 82C 65.882251 82 82 65.882251 82 46C 82 26.117749 65.882251 10 46 10C 26.117749 10 10 26.117749 10 46"></path></g></g></g><g id="g-root-6.cu-smallCircle_sy_hunlhv1oj6i2y-stroke" data-item-order="-138217" transform="translate(564, 324.001953125)"><g id="6.cu-smallCircle_sy_hunlhv1oj6i2y-stroke" fill="none" stroke-linecap="round" stroke-linejoin="round" stroke-miterlimit="4" stroke="#f79438" stroke-width="2"><g><path d="M 10 13C 10 11.343109 11.343079 10 13 10C 14.656921 10 16 11.343109 16 13C 16 14.656891 14.656921 16 13 16C 11.343079 16 10 14.656891 10 13Z"></path></g></g></g><g id="g-root-6.ln_ln_deu3df1oj6iv7-stroke" data-item-order="-138215" transform="translate(567, 330.001953125)"><g id="6.ln_ln_deu3df1oj6iv7-stroke" fill="none" stroke-linecap="round" stroke-linejoin="round" stroke-miterlimit="4" stroke="#f79438" stroke-width="2"><g><path d="M 10 31L 10 20.5L 10 10"></path></g></g></g><g id="g-root-5.cr-big_cr_4j734j1oj6jnw-stroke" data-item-order="-138212" transform="translate(435, 231)"><g id="5.cr-big_cr_4j734j1oj6jnw-stroke" fill="none" stroke-linecap="round" stroke-linejoin="round" stroke-miterlimit="4" stroke="#ffe711" stroke-width="2"><g><path d="M 10 46C 10 65.882251 26.117749 82 46 82C 65.882251 82 82 65.882251 82 46C 82 26.117749 65.882251 10 46 10C 26.117749 10 10 26.117749 10 46"></path></g></g></g><g id="g-root-5.cu-smallCircle_sy_4j734j1oj6jnx-stroke" data-item-order="-138209" transform="translate(468, 323.99609375)"><g id="5.cu-smallCircle_sy_4j734j1oj6jnx-stroke" fill="none" stroke-linecap="round" stroke-linejoin="round" stroke-miterlimit="4" stroke="#ffe711" stroke-width="2"><g><path d="M 16 13C 16 14.6569 14.6569 16 13 16C 11.3431 16 10 14.6569 10 13C 10 11.3431 11.3431 10 13 10C 14.6569 10 16 11.3431 16 13Z"></path></g></g></g><g id="g-root-5.ln_ln_402371oj6hae-stroke" data-item-order="-138207" transform="translate(471, 303)"><g id="5.ln_ln_402371oj6hae-stroke" fill="none" stroke-linecap="round" stroke-linejoin="round" stroke-miterlimit="4" stroke="#ffe711" stroke-width="2"><g><path d="M 10 10L 10 20.5L 10 31"></path></g></g></g><g id="g-root-4.cr-big_cr_402371oj6haf-stroke" data-item-order="-138204" transform="translate(339, 350.998046875)"><g id="4.cr-big_cr_402371oj6haf-stroke" fill="none" stroke-linecap="round" stroke-linejoin="round" stroke-miterlimit="4" stroke="#a6da37" stroke-width="2"><g><path d="M 10 46C 10 65.882251 26.117749 82 46 82C 65.882251 82 82 65.882251 82 46C 82 26.117749 65.882251 10 46 10C 26.117749 10 10 26.117749 10 46"></path></g></g></g><g id="g-root-4.cu-smallCircle_sy_1upalxv1oj6hvk-stroke" data-item-order="-138201" transform="translate(372, 324.001953125)"><g id="4.cu-smallCircle_sy_1upalxv1oj6hvk-stroke" fill="none" stroke-linecap="round" stroke-linejoin="round" stroke-miterlimit="4" stroke="#a6da37" stroke-width="2"><g><path d="M 10 13C 10 11.343109 11.343079 10 13 10C 14.656921 10 16 11.343109 16 13C 16 14.656891 14.656921 16 13 16C 11.343079 16 10 14.656891 10 13Z"></path></g></g></g><g id="g-root-4.ln_ln_1upalxv1oj6hvl-stroke" data-item-order="-138199" transform="translate(375, 330.001953125)"><g id="4.ln_ln_1upalxv1oj6hvl-stroke" fill="none" stroke-linecap="round" stroke-linejoin="round" stroke-miterlimit="4" stroke="#a6da37" stroke-width="2"><g><path d="M 10 31L 10 20.5L 10 10"></path></g></g></g><g id="g-root-3.cr-big_cr_1ltnloz1oj6ioa-stroke" data-item-order="-138196" transform="translate(243, 231)"><g id="3.cr-big_cr_1ltnloz1oj6ioa-stroke" fill="none" stroke-linecap="round" stroke-linejoin="round" stroke-miterlimit="4" stroke="#43dd93" stroke-width="2"><g><path d="M 10 46C 10 65.882251 26.117749 82 46 82C 65.882251 82 82 65.882251 82 46C 82 26.117749 65.882251 10 46 10C 26.117749 10 10 26.117749 10 46"></path></g></g></g><g id="g-root-3.cu-smallCircle_sy_1ltnloz1oj6iob-stroke" data-item-order="-138193" transform="translate(276, 323.99609375)"><g id="3.cu-smallCircle_sy_1ltnloz1oj6iob-stroke" fill="none" stroke-linecap="round" stroke-linejoin="round" stroke-miterlimit="4" stroke="#43dd93" stroke-width="2"><g><path d="M 16 13C 16 14.6569 14.6569 16 13 16C 11.3431 16 10 14.6569 10 13C 10 11.3431 11.3431 10 13 10C 14.6569 10 16 11.3431 16 13Z"></path></g></g></g><g id="g-root-3.ln_ln_1hdu3kj1oj6jgk-stroke" data-item-order="-138191" transform="translate(279, 303)"><g id="3.ln_ln_1hdu3kj1oj6jgk-stroke" fill="none" stroke-linecap="round" stroke-linejoin="round" stroke-miterlimit="4" stroke="#43dd93" stroke-width="2"><g><path d="M 10 10L 10 20.5L 10 31"></path></g></g></g><g id="g-root-2.cr-big_cr_1hdu3kj1oj6jgl-stroke" data-item-order="-138188" transform="translate(147, 351)"><g id="2.cr-big_cr_1hdu3kj1oj6jgl-stroke" fill="none" stroke-linecap="round" stroke-linejoin="round" stroke-miterlimit="4" stroke="#1ac3fb" stroke-width="2"><g><path d="M 10 46C 10 65.882251 26.117749 82 46 82C 65.882251 82 82 65.882251 82 46C 82 26.117749 65.882251 10 46 10C 26.117749 10 10 26.117749 10 46"></path></g></g></g><g id="g-root-2.cu-smallCircle_sy_18i73bn1oj6k9a-stroke" data-item-order="-138185" transform="translate(180, 324.001953125)"><g id="2.cu-smallCircle_sy_18i73bn1oj6k9a-stroke" fill="none" stroke-linecap="round" stroke-linejoin="round" stroke-miterlimit="4" stroke="#1ac3fb" stroke-width="2"><g><path d="M 10 13C 10 11.343109 11.343109 10 13 10C 14.656891 10 16 11.343109 16 13C 16 14.656891 14.656891 16 13 16C 11.343109 16 10 14.656891 10 13Z"></path></g></g></g><g id="g-root-2.ln_ln_18i73bn1oj6k9b-stroke" data-item-order="-138183" transform="translate(183, 330.001953125)"><g id="2.ln_ln_18i73bn1oj6k9b-stroke" fill="none" stroke-linecap="round" stroke-linejoin="round" stroke-miterlimit="4" stroke="#1ac3fb" stroke-width="2"><g><path d="M 10 31L 10 20.5L 10 10"></path></g></g></g><g id="g-root-1.cr-big_cr_14302ab1oj6hvs-stroke" data-item-order="-138180" transform="translate(51, 231)"><g id="1.cr-big_cr_14302ab1oj6hvs-stroke" fill="none" stroke-linecap="round" stroke-linejoin="round" stroke-miterlimit="4" stroke="#4f91fc" stroke-width="2"><g><path d="M 10 46C 10 65.882251 26.117749 82 46 82C 65.882251 82 82 65.882251 82 46C 82 26.117749 65.882251 10 46 10C 26.117749 10 10 26.117749 10 46"></path></g></g></g><g id="g-root-1.cu-smallCircle_sy_14302ab1oj6hvt-stroke" data-item-order="-138177" transform="translate(84, 323.99609375)"><g id="1.cu-smallCircle_sy_14302ab1oj6hvt-stroke" fill="none" stroke-linecap="round" stroke-linejoin="round" stroke-miterlimit="4" stroke="#4f91fc" stroke-width="2"><g><path d="M 16 13C 16 14.6569 14.6569 16 13 16C 11.3431 16 10 14.6569 10 13C 10 11.3431 11.3431 10 13 10C 14.6569 10 16 11.3431 16 13Z"></path></g></g></g><g id="g-root-1.ln_ln_zn6k5v1oj6io2-stroke" data-item-order="-138175" transform="translate(87, 303)"><g id="1.ln_ln_zn6k5v1oj6io2-stroke" fill="none" stroke-linecap="round" stroke-linejoin="round" stroke-miterlimit="4" stroke="#4f91fc" stroke-width="2"><g><path d="M 10 10L 10 20.5L 10 31"></path></g></g></g><g id="g-root-mail_qrjjwz1oj6jgr-stroke" data-item-order="0" transform="translate(639, 243)"><g id="mail_qrjjwz1oj6jgr-stroke" fill="none" stroke-linecap="round" stroke-linejoin="round" stroke-miterlimit="4" stroke="#fb6762" stroke-width="2"><g><path d="M 57 14L 57 27C 57 28.10457 56.104568 29 55 29L 35 29C 33.895432 29 33 28.10457 33 27L 33 14M 57 14L 57 13C 57 11.895431 56.104568 11 55 11L 35 11C 33.895432 11 33 11.895431 33 13L 33 14L 43.400002 20.506001C 44.372814 21.11401 45.607189 21.11401 46.580002 20.506001ZM 21 32L 21 38M 25 57L 26 45L 31 45L 31 38C 31 32.477154 26.522848 28 21 28C 15.477153 28 11 32.477154 11 38L 11 45L 16 45L 17 57ZM 14.968 14.446C 17.158287 16.717663 20.1784 18.000652 23.334 18C 24.91567 18.000362 26.480831 17.678482 27.934 17.054001M 14 18C 14 21.865993 17.134007 25 21 25C 24.865993 25 28 21.865993 28 18C 28 14.134007 24.865993 11 21 11C 17.134007 11 14 14.134007 14 18Z"></path></g></g></g><g id="g-root-exch_hrjb831oiy3ur-stroke" data-item-order="0" transform="translate(447, 243)"><g id="exch_hrjb831oiy3ur-stroke" fill="none" stroke-linecap="round" stroke-linejoin="round" stroke-miterlimit="4" stroke="#ffe711" stroke-width="2"><g><path d="M 19 26L 19 21.5C 18.999468 19.509674 19.790298 17.6008 21.198235 16.193989C 22.606171 14.787179 24.515675 13.997876 26.506001 14L 30 14M 23.006001 22L 19.006001 26L 15.006001 22M 27.006001 11L 30.006001 14L 27.006001 17M 20 50.5C 19.723858 50.5 19.5 50.723858 19.5 51C 19.5 51.276142 19.723858 51.5 20 51.5C 20.276142 51.5 20.5 51.276142 20.5 51C 20.5 50.723858 20.276142 50.5 20 50.5L 20 50.5M 29 55C 29 56.104568 28.10457 57 27 57L 13 57C 11.895431 57 11 56.104568 11 55L 11 33C 11 31.89543 11.895431 31 13 31L 27 31C 28.10457 31 29 31.89543 29 33ZM 57 15C 57 17.209139 55.209141 19 53 19L 43 19C 40.790863 19 39 17.209139 39 15C 39 12.790861 40.790863 11 43 11L 53 11C 55.209141 11 57 12.790861 57 15ZM 44.5 14.5C 44.223858 14.5 44 14.723858 44 15C 44 15.276142 44.223858 15.5 44.5 15.5C 44.776142 15.5 45 15.276142 45 15C 45 14.723858 44.776142 14.5 44.5 14.5L 44.5 14.5M 57 23C 57 25.209139 55.209141 27 53 27L 43 27C 40.790863 27 39 25.209139 39 23C 39 20.790861 40.790863 19 43 19L 53 19C 55.209141 19 57 20.790861 57 23ZM 44.5 22.5C 44.223858 22.5 44 22.723858 44 23C 44 23.276142 44.223858 23.5 44.5 23.5C 44.776142 23.5 45 23.276142 45 23C 45 22.723858 44.776142 22.5 44.5 22.5L 44.5 22.5M 57 31C 57 33.209137 55.209141 35 53 35L 43 35C 40.790863 35 39 33.209137 39 31C 39 28.790861 40.790863 27 43 27L 53 27C 55.209141 27 57 28.790861 57 31ZM 44.5 30.5C 44.223858 30.5 44 30.723858 44 31C 44 31.276142 44.223858 31.5 44.5 31.5C 44.776142 31.5 45 31.276142 45 31C 45 30.723858 44.776142 30.5 44.5 30.5L 44.5 30.5"></path></g></g></g><g id="g-root-remo_v98kgj1oj0vf1-stroke" data-item-order="0" transform="translate(255, 243)"><g id="remo_v98kgj1oj0vf1-stroke" fill="none" stroke-linecap="round" stroke-linejoin="round" stroke-miterlimit="4" stroke="#43dd93" stroke-width="2"><g><path d="M 53 19C 53 21.209139 51.209141 23 49 23L 15 23C 12.790861 23 11 21.209139 11 19L 11 15C 11 12.790861 12.790861 11 15 11L 49 11C 51.209141 11 53 12.790861 53 15ZM 15 35C 12.790861 35 11 33.209137 11 31L 11 27C 11 24.790861 12.790861 23 15 23L 49 23C 51.209141 23 53 24.790861 53 27L 53 30M 19.5 16.5C 19.223858 16.5 19 16.723858 19 17C 19 17.276142 19.223858 17.5 19.5 17.5C 19.776142 17.5 20 17.276142 20 17C 20 16.723858 19.776142 16.5 19.5 16.5L 19.5 16.5M 26.5 16.5C 26.223858 16.5 26 16.723858 26 17C 26 17.276142 26.223858 17.5 26.5 17.5C 26.776142 17.5 27 17.276142 27 17C 27 16.723858 26.776142 16.5 26.5 16.5L 26.5 16.5M 19.5 28.5C 19.223858 28.5 19 28.723858 19 29C 19 29.276142 19.223858 29.5 19.5 29.5C 19.776142 29.5 20 29.276142 20 29C 20 28.723858 19.776142 28.5 19.5 28.5L 19.5 28.5M 26.5 28.5C 26.223858 28.5 26 28.723858 26 29C 26 29.276142 26.223858 29.5 26.5 29.5C 26.776142 29.5 27 29.276142 27 29C 27 28.723858 26.776142 28.5 26.5 28.5L 26.5 28.5M 28 47L 15 47C 12.790861 47 11 45.209141 11 43L 11 39C 11 36.790863 12.790861 35 15 35L 31 35M 19.5 40.5C 19.223858 40.5 19 40.723858 19 41C 19 41.276142 19.223858 41.5 19.5 41.5C 19.776142 41.5 20 41.276142 20 41C 20 40.723858 19.776142 40.5 19.5 40.5L 19.5 40.5M 26.5 40.5C 26.223858 40.5 26 40.723858 26 41C 26 41.276142 26.223858 41.5 26.5 41.5C 26.776142 41.5 27 41.276142 27 41C 27 40.723858 26.776142 40.5 26.5 40.5L 26.5 40.5M 33 45C 33 51.627419 38.372581 57 45 57C 51.627419 57 57 51.627419 57 45C 57 38.372581 51.627419 33 45 33C 38.372581 33 33 38.372581 33 45ZM 49.242001 40.757999L 40.757999 49.242001M 49.242001 49.242001L 40.757999 40.757999"></path></g></g></g><g id="g-root-tx_serversa_1umssr71ojaq6j-stroke" data-item-order="0" transform="translate(501, 435)"></g><g id="g-root-tx_datatran_m9upoz1ojapdx-stroke" data-item-order="0" transform="translate(405, 171)"></g><g id="g-root-tx_usersend_1cxe7ir1ojark1-stroke" data-item-order="0" transform="translate(27, 171)"></g><g id="g-root-tx_emaildel_zitbpv1ojaryh-stroke" data-item-order="0" transform="translate(591, 147)"></g><g id="g-root-tx_mxrecord_1lt17rn1ojapzj-stroke" data-item-order="0" transform="translate(219, 123)"></g><g id="g-root-sear_940h3n1oj3ocp-stroke" data-item-order="0" transform="translate(159, 363)"><g id="sear_940h3n1oj3ocp-stroke" fill="none" stroke-linecap="round" stroke-linejoin="round" stroke-miterlimit="4" stroke="#1ac3fb" stroke-width="2"><g><path d="M 53 19C 53 21.209139 51.209141 23 49 23L 15 23C 12.790861 23 11 21.209139 11 19L 11 15C 11 12.790861 12.790861 11 15 11L 49 11C 51.209141 11 53 12.790861 53 15ZM 15 35C 12.790861 35 11 33.209137 11 31L 11 27C 11 24.790861 12.790861 23 15 23L 49 23C 51.209141 23 53 24.790861 53 27L 53 30M 19.5 16.5C 19.223858 16.5 19 16.723858 19 17C 19 17.276142 19.223858 17.5 19.5 17.5C 19.776142 17.5 20 17.276142 20 17C 20 16.723858 19.776142 16.5 19.5 16.5L 19.5 16.5M 26.5 16.5C 26.223858 16.5 26 16.723858 26 17C 26 17.276142 26.223858 17.5 26.5 17.5C 26.776142 17.5 27 17.276142 27 17C 27 16.723858 26.776142 16.5 26.5 16.5L 26.5 16.5M 19.5 28.5C 19.223858 28.5 19 28.723858 19 29C 19 29.276142 19.223858 29.5 19.5 29.5C 19.776142 29.5 20 29.276142 20 29C 20 28.723858 19.776142 28.5 19.5 28.5L 19.5 28.5M 26.5 28.5C 26.223858 28.5 26 28.723858 26 29C 26 29.276142 26.223858 29.5 26.5 29.5C 26.776142 29.5 27 29.276142 27 29C 27 28.723858 26.776142 28.5 26.5 28.5L 26.5 28.5M 28 47L 15 47C 12.790861 47 11 45.209141 11 43L 11 39C 11 36.790863 12.790861 35 15 35L 31 35M 19.5 40.5C 19.223858 40.5 19 40.723858 19 41C 19 41.276142 19.223858 41.5 19.5 41.5C 19.776142 41.5 20 41.276142 20 41C 20 40.723858 19.776142 40.5 19.5 40.5L 19.5 40.5M 26.5 40.5C 26.223858 40.5 26 40.723858 26 41C 26 41.276142 26.223858 41.5 26.5 41.5C 26.776142 41.5 27 41.276142 27 41C 27 40.723858 26.776142 40.5 26.5 40.5L 26.5 40.5M 35 44.057999C 35 49.060593 39.055405 53.115997 44.057999 53.115997C 49.060593 53.115997 53.115997 49.060593 53.115997 44.057999C 53.115997 39.055405 49.060593 35 44.057999 35C 39.055405 35 35 39.055405 35 44.057999ZM 57 57L 50.504002 50.504002"></path></g></g></g><g id="g-root-shar_hunonn1oizifc-stroke" data-item-order="0" transform="translate(351, 363)"><g id="shar_hunonn1oizifc-stroke" fill="none" stroke-linecap="round" stroke-linejoin="round" stroke-miterlimit="4" stroke="#a6da37" stroke-width="2"><g><path d="M 37.578003 11L 54.956001 11C 54.956001 11 57 11 57 13.044L 57 29.4C 57 29.4 57 31.444 54.956001 31.444L 37.578003 31.444C 37.578003 31.444 35.534 31.444 35.534 29.4L 35.534 13.044C 35.534 13.044 35.534 11 37.578003 11M 35.534 17.962L 57 17.962M 35.534 24.704L 57 24.704M 45.242001 17.962L 45.242001 31.444M 50.998001 17.962L 50.998001 31.444M 20.200001 23.6L 15.6 28L 15.6 23.6C 15.665619 20.278273 18.4123 17.639059 21.734001 17.706001L 29.4 17.705999M 11 23.6L 15.6 28.01M 24.799999 13.29L 29.4 17.705999L 24.799999 22.122M 13.044 33.487999L 24.290001 33.487999C 24.290001 33.487999 26.334 33.487999 26.334 35.532001L 26.334 54.956001C 26.334 54.956001 26.334 57 24.290001 57L 13.044 57C 13.044 57 11 57 11 54.956001L 11 35.532001C 11 35.532001 11 33.487999 13.044 33.487999M 11 50.866001L 26.334 50.866001"></path></g></g></g><g id="g-root-1_1q9h6z71oivbpi-stroke" data-item-order="0" transform="translate(543, 363)"><g id="1_1q9h6z71oivbpi-stroke" fill="none" stroke-linecap="round" stroke-linejoin="round" stroke-miterlimit="4" stroke="#f79438" stroke-width="2"><g><path d="M 33 45C 33 51.627419 38.372581 57 45 57C 51.627419 57 57 51.627419 57 45C 57 38.372581 51.627419 33 45 33C 38.372581 33 33 38.372581 33 45ZM 50.348 41.512001L 44.537998 49.259998C 44.276993 49.607555 43.878059 49.824806 43.444496 49.855503C 43.010933 49.886196 42.585373 49.727318 42.278 49.420002L 39.278 46.419998M 21 51L 27 51M 27.002001 41L 27.002001 51M 16.5 50C 16.223858 50 16 50.223858 16 50.5C 16 50.776142 16.223858 51 16.5 51C 16.776142 51 17 50.776142 17 50.5C 17 50.223858 16.776142 50 16.5 50L 16.5 50M 11.5 50C 11.223858 50 11 50.223858 11 50.5C 11 50.776142 11.223858 51 11.5 51C 11.776142 51 12 50.776142 12 50.5C 12 50.223858 11.776142 50 11.5 50L 11.5 50M 18.5 35.5C 18.223858 35.5 18 35.723858 18 36C 18 36.276142 18.223858 36.5 18.5 36.5C 18.776142 36.5 19 36.276142 19 36C 19 35.723858 18.776142 35.5 18.5 35.5L 18.5 35.5M 23.5 35.5C 23.223858 35.5 23 35.723858 23 36C 23 36.276142 23.223858 36.5 23.5 36.5C 23.776142 36.5 24 36.276142 24 36C 24 35.723858 23.776142 35.5 23.5 35.5L 23.5 35.5M 35 31L 16 31C 13.238577 31 11 33.238579 11 36C 11 38.761425 13.238577 41 16 41L 29 41M 18.5 25.5C 18.223858 25.5 18 25.723858 18 26C 18 26.276142 18.223858 26.5 18.5 26.5C 18.776142 26.5 19 26.276142 19 26C 19 25.723858 18.776142 25.5 18.5 25.5L 18.5 25.5M 23.5 25.5C 23.223858 25.5 23 25.723858 23 26C 23 26.276142 23.223858 26.5 23.5 26.5C 23.776142 26.5 24 26.276142 24 26C 24 25.723858 23.776142 25.5 23.5 25.5L 23.5 25.5M 45 26C 45 23.238577 42.761425 21 40 21L 16 21C 13.238577 21 11 23.238577 11 26C 11 28.761423 13.238577 31 16 31L 35 31M 18.5 15.5C 18.223858 15.5 18 15.723858 18 16C 18 16.276142 18.223858 16.5 18.5 16.5C 18.776142 16.5 19 16.276142 19 16C 19 15.723858 18.776142 15.5 18.5 15.5L 18.5 15.5M 23.5 15.5C 23.223858 15.5 23 15.723858 23 16C 23 16.276142 23.223858 16.5 23.5 16.5C 23.776142 16.5 24 16.276142 24 16C 24 15.723858 23.776142 15.5 23.5 15.5L 23.5 15.5M 45 16C 45 13.238576 42.761425 11 40 11L 16 11C 13.238577 11 11 13.238577 11 16C 11 18.761425 13.238577 21 16 21L 40 21C 42.761425 21 45 18.761425 45 16Z"></path></g></g></g><g id="g-root-tx_serverlo_1hd7pn71ojaqrs-stroke" data-item-order="0" transform="translate(117, 435)"></g><g id="g-root-tx_smtphand_2r72r1ojarri-stroke" data-item-order="0" transform="translate(297, 435)"></g><g id="g-root-tx_emaildel_hx5l031ojaqku-stroke" data-item-order="0" transform="translate(267, 39)"></g><g id="g-root-empl_1qaq55f1oj7wn7-stroke" data-item-order="0" transform="translate(63, 243)"><g id="empl_1qaq55f1oj7wn7-stroke" fill="none" stroke-linecap="round" stroke-linejoin="round" stroke-miterlimit="4" stroke="#4f91fc" stroke-width="2"><g><path d="M 47 56L 21 56L 17.619999 42.48C 17.473774 41.878754 17.61408 41.243683 18 40.760002C 18.377295 40.282524 18.951456 40.002808 19.560001 40L 48.439999 40C 49.055561 39.996685 49.638355 40.277016 50.02 40.760002C 50.398937 41.247086 50.531792 41.881828 50.380001 42.48ZM 12 56L 56 56M 34 34L 34 37M 28 15.46C 30.186512 17.71983 33.195534 18.997042 36.34 19C 37.924873 18.978458 39.489223 18.638382 40.940002 18M 27 19C 27.000002 22.865993 30.134008 26 34 26C 37.865993 26 41 22.865993 41 19C 41 15.134007 37.865993 12 34 12C 30.134008 12 27.000002 15.134007 27.000002 19M 31.5 47.5C 31.5 48.880711 32.619289 50 34 50C 35.380714 50 36.5 48.880711 36.5 47.5C 36.5 46.119289 35.380714 45 34 45C 32.619289 45 31.5 46.119289 31.5 47.5M 43.5 36C 42.151165 31.896255 38.319733 29.122499 34 29.122499C 29.680267 29.122499 25.848835 31.896255 24.5 36"></path></g></g></g></g></g></svg>