<?xml version="1.0" encoding="UTF-8"?>
<svg width="800" height="400" viewBox="0 0 800 400" xmlns="http://www.w3.org/2000/svg">
  <!-- Background -->
  <rect width="800" height="400" fill="#1e1e2e" rx="10" ry="10"/>
  
  <!-- Client Device (Computer) -->
  <rect x="50" y="150" width="100" height="80" fill="#45475a" stroke="#89b4fa" stroke-width="2" rx="5" ry="5"/>
  <rect x="65" y="160" width="70" height="45" fill="#313244" stroke="#89b4fa" stroke-width="1" rx="2" ry="2"/>
  <rect x="80" y="230" width="40" height="10" fill="#313244" stroke="#89b4fa" stroke-width="1"/>
  <text x="100" y="270" font-family="Arial, sans-serif" font-size="14" fill="#cdd6f4" text-anchor="middle">Your Device</text>
  
  <!-- Home Router -->
  <rect x="200" y="160" width="80" height="60" fill="#45475a" stroke="#89b4fa" stroke-width="2" rx="5" ry="5"/>
  <circle cx="215" cy="170" r="5" fill="#a6e3a1"/>
  <circle cx="235" cy="170" r="5" fill="#f9e2af"/>
  <rect x="210" y="180" width="60" height="30" fill="#313244" stroke="#89b4fa" stroke-width="1" rx="2" ry="2"/>
  <text x="240" y="270" font-family="Arial, sans-serif" font-size="14" fill="#cdd6f4" text-anchor="middle">Home Router</text>
  
  <!-- ISP -->
  <rect x="330" y="140" width="120" height="100" fill="#45475a" stroke="#89b4fa" stroke-width="2" rx="10" ry="10"/>
  <text x="390" y="190" font-family="Arial, sans-serif" font-size="16" fill="#cdd6f4" text-anchor="middle">ISP</text>
  <text x="390" y="210" font-family="Arial, sans-serif" font-size="12" fill="#cdd6f4" text-anchor="middle">(Internet Service Provider)</text>
  <text x="390" y="270" font-family="Arial, sans-serif" font-size="14" fill="#cdd6f4" text-anchor="middle">Your ISP</text>
  
  <!-- Internet Cloud -->
  <ellipse cx="550" cy="190" rx="80" ry="60" fill="#45475a" stroke="#89b4fa" stroke-width="2"/>
  <text x="550" y="190" font-family="Arial, sans-serif" font-size="16" fill="#cdd6f4" text-anchor="middle">Internet</text>
  <text x="550" y="210" font-family="Arial, sans-serif" font-size="12" fill="#cdd6f4" text-anchor="middle">Backbone</text>
  <text x="550" y="270" font-family="Arial, sans-serif" font-size="14" fill="#cdd6f4" text-anchor="middle">Internet Backbone</text>
  
  <!-- Server -->
  <rect x="680" y="150" width="70" height="100" fill="#45475a" stroke="#89b4fa" stroke-width="2" rx="5" ry="5"/>
  <rect x="690" y="160" width="50" height="10" fill="#313244" stroke="#89b4fa" stroke-width="1"/>
  <rect x="690" y="175" width="50" height="10" fill="#313244" stroke="#89b4fa" stroke-width="1"/>
  <rect x="690" y="190" width="50" height="10" fill="#313244" stroke="#89b4fa" stroke-width="1"/>
  <rect x="690" y="205" width="50" height="10" fill="#313244" stroke="#89b4fa" stroke-width="1"/>
  <rect x="690" y="220" width="50" height="10" fill="#313244" stroke="#89b4fa" stroke-width="1"/>
  <text x="715" y="270" font-family="Arial, sans-serif" font-size="14" fill="#cdd6f4" text-anchor="middle">Web Server</text>
  
  <!-- Connection Lines -->
  <line x1="150" y1="190" x2="200" y2="190" stroke="#f5c2e7" stroke-width="3"/>
  <line x1="280" y1="190" x2="330" y2="190" stroke="#f5c2e7" stroke-width="3"/>
  <line x1="450" y1="190" x2="470" y2="190" stroke="#f5c2e7" stroke-width="3"/>
  <line x1="630" y1="190" x2="680" y2="190" stroke="#f5c2e7" stroke-width="3"/>
  
  <!-- Data Packet Animation (Dots) -->
  <circle cx="175" cy="190" r="5" fill="#f38ba8">
    <animate attributeName="cx" values="150;200" dur="2s" repeatCount="indefinite"/>
  </circle>
  <circle cx="305" cy="190" r="5" fill="#f38ba8">
    <animate attributeName="cx" values="280;330" dur="2s" repeatCount="indefinite"/>
  </circle>
  <circle cx="460" cy="190" r="5" fill="#f38ba8">
    <animate attributeName="cx" values="450;470" dur="2s" repeatCount="indefinite"/>
  </circle>
  <circle cx="655" cy="190" r="5" fill="#f38ba8">
    <animate attributeName="cx" values="630;680" dur="2s" repeatCount="indefinite"/>
  </circle>
  
  <!-- Return Path (Response) -->
  <path d="M 680,210 C 600,230 400,230 150,210" stroke="#a6e3a1" stroke-width="2" fill="none" stroke-dasharray="5,5"/>
  <circle cx="400" cy="220" r="5" fill="#a6e3a1">
    <animate attributeName="cx" values="680;150" dur="3s" repeatCount="indefinite"/>
  </circle>
  
  <!-- Title -->
  <text x="400" y="50" font-family="Arial, sans-serif" font-size="24" fill="#cdd6f4" text-anchor="middle" font-weight="bold">How the Internet Works</text>
  <text x="400" y="80" font-family="Arial, sans-serif" font-size="16" fill="#cdd6f4" text-anchor="middle">Basic Internet Connection Diagram</text>
  
  <!-- Legend -->
  <rect x="50" y="320" width="15" height="15" fill="none" stroke="#f5c2e7" stroke-width="2"/>
  <text x="75" y="333" font-family="Arial, sans-serif" font-size="14" fill="#cdd6f4" text-anchor="start">Request Path</text>
  
  <rect x="200" y="320" width="15" height="15" fill="none" stroke="#a6e3a1" stroke-width="2" stroke-dasharray="5,5"/>
  <text x="225" y="333" font-family="Arial, sans-serif" font-size="14" fill="#cdd6f4" text-anchor="start">Response Path</text>
  
  <circle cx="350" cy="328" r="5" fill="#f38ba8"/>
  <text x="365" y="333" font-family="Arial, sans-serif" font-size="14" fill="#cdd6f4" text-anchor="start">Data Packets</text>
</svg>
