<svg width="900" height="600" viewBox="0 0 900 600" xmlns="http://www.w3.org/2000/svg">
  <style>
    .node {
      fill: #F87171;
      stroke: white;
      stroke-width: 2;
    }
    .node-label {
      font-family: Arial, sans-serif;
      font-size: 14px;
      fill: white;
      text-anchor: middle;
    }
    .connection {
      stroke: white;
      stroke-width: 2;
      stroke-linecap: round;
    }
    .device {
      fill: #22D3EE;
    }
    .packet {
      fill: #FCD34D;
      r: 5;
    }
    @keyframes nodeScale {
      0%, 100% { transform: scale(1); }
      50% { transform: scale(1.1); }
    }
    @keyframes packetMove {
      from { offset-distance: 0%; }
      to { offset-distance: 100%; }
    }
    .animate-node {
      animation: nodeScale 3s infinite;
    }
    .animate-packet {
      offset-path: path('M100,500 Q450,300 800,500');
      animation: packetMove 5s infinite linear;
    }
  </style>

  <!-- Background -->
  <rect width="100%" height="100%" fill="#1E293B"/>

  <!-- Network Connections -->
  <path class="connection" d="M100,500 Q450,300 800,500" fill="none"/>
  <path class="connection" d="M450,300 Q450,150 450,50" fill="none"/>
  <path class="connection" d="M450,300 Q250,300 150,200" fill="none"/>
  <path class="connection" d="M450,300 Q650,300 750,200" fill="none"/>

  <!-- Network Nodes -->
  <g class="animate-node">
    <circle class="node" cx="450" cy="300" r="60"/>
    <text class="node-label" x="450" y="305">Internet Backbone</text>
  </g>

  <g class="animate-node">
    <circle class="node" cx="450" cy="50" r="40"/>
    <text class="node-label" x="450" y="55">Tier 1 ISP</text>
  </g>

  <g class="animate-node">
    <circle class="node" cx="150" cy="200" r="30"/>
    <text class="node-label" x="150" y="205">ISP A</text>
  </g>

  <g class="animate-node">
    <circle class="node" cx="750" cy="200" r="30"/>
    <text class="node-label" x="750" y="205">ISP B</text>
  </g>

  <!-- End Devices -->
  <g transform="translate(100,500)">
    <rect class="device" x="-20" y="-30" width="40" height="60" rx="5"/>
    <text class="node-label" x="0" y="50">Client</text>
  </g>

  <g transform="translate(800,500)">
    <rect class="device" x="-20" y="-30" width="40" height="60" rx="5"/>
    <text class="node-label" x="0" y="50">Server</text>
  </g>

  <!-- Animated Packets -->
  <circle class="packet animate-packet"/>
  <circle class="packet animate-packet" style="animation-delay: -1.67s"/>
  <circle class="packet animate-packet" style="animation-delay: -3.33s"/>

  <!-- Legend -->
  <g transform="translate(50,50)">
    <rect width="200" height="100" fill="#1E293B" rx="5" stroke="white" stroke-width="1"/>
    <text x="10" y="30" fill="white" font-family="Arial">Legend:</text>
    <circle cx="30" cy="50" r="10" class="node"/>
    <text x="50" y="55" fill="white" font-family="Arial">Network Node</text>
    <rect x="20" y="70" width="20" height="20" class="device"/>
    <text x="50" y="85" fill="white" font-family="Arial">End Device</text>
  </g>
</svg>
